<svg id="svg" version="1.1" xmlns="http://www.w3.org/2000/svg" xmlns:xlink="http://www.w3.org/1999/xlink" width="400" height="400" viewBox="0, 0, 400,400"><g id="svgg"><path id="path0" d="M200.313 34.743 C 198.739 34.894,197.374 35.253,197.016 35.612 C 196.476 36.152,196.376 42.563,196.157 90.412 C 196.021 120.215,195.868 149.280,195.817 155.000 C 195.569 182.810,195.564 235.080,195.809 235.700 C 195.974 236.118,196.511 236.402,197.143 236.405 C 197.724 236.408,200.941 236.457,204.292 236.514 C 209.182 236.598,210.426 236.509,210.597 236.065 C 210.893 235.293,210.851 37.799,210.555 37.027 C 210.423 36.682,209.974 36.400,209.557 36.400 C 209.141 36.400,208.800 36.149,208.800 35.843 C 208.800 34.793,204.975 34.298,200.313 34.743 M208.000 53.000 C 208.000 53.550,207.820 54.000,207.600 54.000 C 207.380 54.000,207.200 53.550,207.200 53.000 C 207.200 52.450,207.380 52.000,207.600 52.000 C 207.820 52.000,208.000 52.450,208.000 53.000 M200.674 57.815 C 200.749 58.044,200.371 58.826,199.834 59.553 L 198.859 60.876 198.444 59.376 C 198.216 58.550,198.130 57.713,198.253 57.515 C 198.546 57.040,200.500 57.282,200.674 57.815 M206.794 60.267 C 206.802 62.049,206.436 62.800,205.557 62.800 C 204.571 62.800,204.502 60.204,205.451 58.848 C 206.239 57.724,206.784 58.300,206.794 60.267 M179.395 63.300 C 179.094 63.987,178.574 64.247,177.200 64.400 C 175.669 64.570,175.421 64.720,175.541 65.400 C 175.619 65.840,175.652 70.790,175.614 76.400 C 175.577 82.010,175.671 88.283,175.823 90.340 L 176.101 94.080 177.169 93.866 C 178.587 93.583,179.222 94.030,178.938 95.114 C 178.654 96.201,178.584 96.203,177.277 95.174 L 176.227 94.349 175.721 96.474 C 175.134 98.941,175.805 105.955,176.557 105.203 C 177.351 104.409,179.197 104.739,179.579 105.744 C 179.809 106.350,180.377 106.775,181.169 106.934 C 182.548 107.210,182.747 107.848,181.700 108.643 C 180.666 109.428,180.457 109.332,180.086 107.902 C 179.790 106.760,179.585 106.602,178.374 106.587 C 177.617 106.577,176.799 106.447,176.556 106.296 C 175.680 105.755,175.160 127.743,175.930 132.762 L 176.200 134.524 177.124 132.671 C 178.201 130.509,178.658 130.118,178.964 131.094 C 179.390 132.456,179.309 136.212,178.827 137.400 L 178.340 138.600 177.220 137.350 L 176.101 136.100 175.417 137.533 C 174.255 139.969,174.112 143.670,174.015 173.800 C 173.964 189.860,173.866 210.346,173.798 219.324 L 173.674 235.648 174.737 236.110 C 176.224 236.758,187.879 236.578,188.912 235.892 C 189.722 235.354,190.299 166.170,189.570 157.000 C 189.413 155.020,189.466 151.818,189.689 149.883 C 190.040 146.830,190.008 146.272,189.447 145.652 C 188.680 144.804,188.571 141.556,189.272 140.434 C 189.653 139.823,189.599 139.461,188.989 138.539 C 188.426 137.690,188.175 136.361,188.001 133.318 C 187.724 128.440,187.945 128.731,185.065 129.466 C 182.903 130.018,182.674 130.010,181.950 129.355 C 180.852 128.361,181.686 127.976,184.991 127.950 C 187.115 127.934,187.615 127.807,187.682 127.265 C 187.728 126.899,187.773 113.010,187.782 96.400 C 187.792 79.790,187.890 65.852,188.000 65.427 C 188.164 64.794,187.913 64.595,186.600 64.323 C 185.720 64.141,184.701 63.633,184.336 63.196 C 183.327 61.987,179.939 62.059,179.395 63.300 M221.463 63.360 C 220.994 64.076,220.321 64.391,218.817 64.598 C 216.967 64.852,216.801 64.963,216.809 65.938 C 216.813 66.522,216.735 86.440,216.634 110.200 C 216.271 195.853,216.272 235.632,216.636 235.970 C 217.520 236.792,230.753 236.836,231.190 236.019 C 231.639 235.180,231.662 178.210,231.242 106.200 L 231.000 64.600 228.865 64.339 C 227.347 64.154,226.561 63.837,226.143 63.239 C 225.257 61.976,222.320 62.051,221.463 63.360 M204.211 67.250 C 204.361 67.932,205.133 69.209,205.927 70.088 C 207.502 71.832,207.183 72.713,204.924 72.860 C 204.416 72.893,203.775 72.938,203.500 72.960 C 202.848 73.012,202.291 66.825,202.883 66.104 C 203.450 65.414,203.891 65.795,204.211 67.250 M219.825 68.473 C 219.906 69.423,220.024 70.813,220.086 71.562 C 220.202 72.952,219.483 73.715,219.071 72.640 C 218.815 71.974,219.215 66.282,219.498 66.565 C 219.597 66.664,219.745 67.522,219.825 68.473 M228.517 68.299 C 228.784 69.696,228.477 70.387,227.557 70.460 C 227.141 70.493,226.582 70.538,226.316 70.560 C 226.050 70.582,225.713 70.060,225.566 69.400 C 225.419 68.740,225.173 67.901,225.020 67.535 C 224.673 66.708,225.749 66.403,227.258 66.900 C 227.949 67.128,228.386 67.614,228.517 68.299 M199.285 70.270 C 199.078 71.348,199.073 71.350,198.737 70.442 C 198.382 69.481,198.631 68.648,199.174 68.984 C 199.349 69.092,199.399 69.671,199.285 70.270 M178.920 71.336 C 179.335 72.418,178.503 73.074,177.714 72.286 C 177.091 71.662,177.076 71.523,177.600 71.192 C 178.414 70.677,178.678 70.706,178.920 71.336 M225.200 71.557 C 225.200 71.754,224.915 72.024,224.567 72.157 C 223.673 72.500,223.600 72.473,223.600 71.800 C 223.600 71.467,223.956 71.200,224.400 71.200 C 224.840 71.200,225.200 71.361,225.200 71.557 M178.800 81.400 C 178.800 86.600,178.654 89.600,178.400 89.600 C 178.147 89.600,178.000 86.689,178.000 81.667 C 178.000 74.686,178.117 73.200,178.667 73.200 C 178.740 73.200,178.800 76.890,178.800 81.400 M228.557 73.833 C 228.874 74.658,228.875 107.340,228.558 108.165 C 227.791 110.165,227.600 106.702,227.600 90.776 C 227.600 74.783,227.770 71.780,228.557 73.833 M182.452 98.600 C 182.781 100.611,182.658 100.800,181.021 100.800 C 179.186 100.800,177.975 99.712,178.263 98.321 C 178.727 96.069,182.075 96.292,182.452 98.600 M157.300 105.465 C 157.025 105.576,156.800 105.907,156.800 106.200 C 156.800 106.494,156.009 107.036,155.042 107.405 L 153.283 108.077 153.114 119.138 C 152.801 139.519,152.786 235.795,153.095 236.200 C 153.680 236.967,166.839 236.889,167.696 236.113 C 168.699 235.205,168.743 145.048,167.743 138.400 C 167.321 135.594,167.191 131.096,167.245 121.200 C 167.318 107.847,167.316 107.799,166.459 107.405 C 165.987 107.188,165.600 106.886,165.600 106.734 C 165.600 105.453,159.601 104.536,157.300 105.465 M241.001 105.830 C 240.341 106.174,239.531 106.686,239.201 106.967 C 238.870 107.248,238.304 107.583,237.943 107.710 C 237.366 107.914,237.268 109.068,237.132 117.271 C 236.801 137.180,236.748 235.921,237.068 236.118 C 238.289 236.873,251.027 236.867,251.705 236.111 C 252.432 235.301,252.546 154.310,251.841 139.600 C 251.698 136.630,251.606 128.217,251.635 120.904 C 251.685 108.283,251.650 107.594,250.944 107.334 C 250.535 107.183,249.804 106.641,249.319 106.130 C 248.214 104.963,243.022 104.776,241.001 105.830 M161.475 107.846 C 162.547 108.133,163.446 110.330,162.755 110.975 C 162.432 111.277,162.247 111.255,162.117 110.900 C 162.016 110.625,161.503 110.400,160.977 110.400 C 160.324 110.400,159.828 110.028,159.415 109.228 C 158.788 108.016,158.812 107.977,160.400 107.652 C 160.510 107.629,160.994 107.716,161.475 107.846 M247.731 109.239 C 249.819 112.429,249.548 113.847,246.982 113.153 C 244.960 112.607,244.946 112.589,244.673 110.125 C 244.462 108.219,244.515 108.036,245.322 107.879 C 245.805 107.786,246.303 107.684,246.429 107.654 C 246.555 107.625,247.141 108.338,247.731 109.239 M156.070 115.741 C 155.707 116.490,155.652 116.396,155.639 115.000 C 155.627 113.669,155.697 113.525,156.055 114.141 C 156.356 114.658,156.360 115.141,156.070 115.741 M241.200 117.075 C 241.200 117.378,241.828 117.997,242.595 118.450 C 243.788 119.154,243.929 119.386,243.568 120.059 C 241.977 123.032,238.519 119.451,239.440 115.784 L 239.691 114.783 240.446 115.653 C 240.860 116.131,241.200 116.771,241.200 117.075 M200.794 119.051 C 200.803 122.865,198.921 123.542,198.507 119.873 C 198.245 117.550,198.609 116.099,199.500 115.911 C 200.529 115.695,200.787 116.321,200.794 119.051 M224.995 117.049 C 226.173 119.870,225.051 121.602,223.009 120.116 C 221.777 119.220,221.720 117.749,222.870 116.526 C 224.033 115.287,224.284 115.349,224.995 117.049 M184.307 117.134 C 185.231 117.721,185.693 120.135,184.981 120.660 C 184.496 121.017,184.473 121.166,184.879 121.333 C 185.165 121.450,184.770 121.439,184.000 121.308 C 181.501 120.883,180.627 119.262,182.070 117.726 C 182.992 116.744,183.486 116.613,184.307 117.134 M156.609 118.429 C 156.915 119.393,156.543 121.200,156.039 121.200 C 155.593 121.200,155.237 119.344,155.495 118.360 C 155.756 117.361,156.280 117.393,156.609 118.429 M220.720 118.080 C 221.464 118.824,221.293 119.429,220.200 119.927 C 219.238 120.366,219.200 120.330,219.200 118.991 C 219.200 117.547,219.817 117.177,220.720 118.080 M228.450 127.096 C 227.663 128.502,227.189 126.280,227.693 123.548 L 228.163 121.000 228.483 123.732 C 228.662 125.257,228.647 126.744,228.450 127.096 M243.600 123.024 C 243.600 123.367,243.754 123.552,243.942 123.436 C 244.129 123.320,244.485 123.669,244.733 124.213 C 244.980 124.756,245.512 125.200,245.915 125.200 C 247.411 125.200,248.052 126.089,247.253 127.055 C 246.223 128.299,243.216 126.997,243.172 125.288 C 243.147 124.339,243.104 124.302,242.829 125.000 C 242.553 125.700,242.478 125.639,242.227 124.510 C 242.070 123.800,242.055 123.035,242.194 122.810 C 242.587 122.173,243.600 122.327,243.600 123.024 M161.880 123.600 C 162.448 123.600,162.800 123.839,162.800 124.225 C 162.800 125.388,160.227 124.799,160.066 123.600 C 159.958 122.792,160.031 122.696,160.446 123.100 C 160.729 123.375,161.374 123.600,161.880 123.600 M283.747 125.635 C 283.048 125.838,282.405 126.338,282.293 126.765 C 282.182 127.189,281.669 127.592,281.146 127.666 C 279.957 127.834,280.095 122.100,279.784 184.260 C 279.611 218.738,279.662 235.368,279.940 235.887 C 280.490 236.916,294.154 237.008,294.838 235.988 C 295.355 235.217,295.190 128.804,294.671 128.100 C 294.468 127.825,293.633 127.600,292.815 127.600 C 291.643 127.600,291.238 127.401,290.900 126.660 C 290.313 125.371,286.528 124.829,283.747 125.635 M115.141 125.868 C 114.779 125.964,114.390 126.393,114.278 126.821 C 114.164 127.261,113.731 127.600,113.286 127.600 C 112.853 127.600,112.326 127.825,112.115 128.100 C 111.623 128.742,111.430 235.194,111.920 235.919 C 112.406 236.638,125.827 236.890,126.407 236.191 C 126.665 235.881,126.767 216.885,126.701 181.757 L 126.600 127.800 125.678 127.669 C 125.171 127.597,124.524 127.731,124.241 127.966 C 123.594 128.503,123.200 128.128,123.200 126.976 C 123.200 125.712,118.276 125.035,115.141 125.868 M161.170 129.376 C 161.142 130.497,160.101 133.855,160.030 133.051 C 159.965 132.297,158.800 133.753,158.800 134.589 C 158.800 136.912,158.014 138.028,156.815 137.408 C 154.946 136.441,154.935 133.200,156.800 133.200 C 157.616 133.200,158.623 131.485,158.205 130.808 C 158.095 130.630,158.257 130.387,158.565 130.269 C 158.873 130.151,159.253 129.457,159.409 128.727 C 159.566 127.997,159.790 127.238,159.908 127.039 C 160.284 126.407,161.201 128.107,161.170 129.376 M207.924 128.700 C 207.855 129.531,207.577 130.222,207.300 130.250 C 207.025 130.278,206.653 130.322,206.474 130.350 C 206.294 130.378,206.195 131.165,206.252 132.100 C 206.309 133.035,206.366 134.036,206.378 134.324 C 206.390 134.612,206.568 134.744,206.772 134.617 C 206.977 134.491,207.265 134.582,207.413 134.820 C 207.562 135.062,207.319 135.348,206.863 135.468 C 205.722 135.766,205.641 137.016,206.588 139.712 C 207.300 141.739,207.326 142.071,206.800 142.406 C 205.823 143.028,205.210 142.860,204.747 141.844 C 204.508 141.318,203.882 140.658,203.356 140.376 C 202.830 140.095,202.406 139.580,202.413 139.232 C 202.429 138.409,203.513 136.980,203.859 137.326 C 204.006 137.473,204.368 137.393,204.663 137.148 C 205.299 136.620,205.388 133.363,204.776 132.985 C 204.272 132.674,204.689 128.463,205.298 127.700 C 206.306 126.439,208.056 127.105,207.924 128.700 M118.027 130.400 C 118.654 130.400,119.153 130.719,119.405 131.281 C 119.627 131.776,120.358 132.303,121.075 132.486 C 123.181 133.021,124.007 134.474,123.957 137.554 L 123.914 140.200 123.527 138.469 C 123.214 137.066,122.915 136.659,121.951 136.323 C 121.096 136.025,120.695 135.574,120.524 134.720 C 120.393 134.066,120.042 133.437,119.743 133.323 C 119.444 133.208,119.200 132.804,119.200 132.425 C 119.200 130.225,116.762 130.555,115.494 132.927 L 114.600 134.600 114.476 132.421 C 114.408 131.223,114.463 129.804,114.598 129.267 L 114.843 128.291 115.943 129.346 C 116.549 129.926,117.486 130.400,118.027 130.400 M222.527 130.100 C 222.721 130.925,223.029 131.600,223.211 131.600 C 225.347 131.600,224.705 135.029,222.364 136.130 C 219.923 137.278,217.899 136.040,219.865 134.602 C 220.639 134.036,220.813 131.699,220.249 129.452 C 219.991 128.424,220.051 128.353,221.073 128.472 C 221.978 128.577,222.237 128.867,222.527 130.100 M286.150 128.985 C 286.027 129.306,285.583 129.679,285.163 129.812 C 284.743 129.945,284.400 130.217,284.400 130.417 C 284.400 130.617,284.041 131.370,283.601 132.090 L 282.803 133.400 282.801 131.076 C 282.801 129.629,282.951 128.846,283.200 129.000 C 283.420 129.136,283.600 129.057,283.600 128.824 C 283.600 128.591,284.224 128.400,284.987 128.400 C 286.040 128.400,286.321 128.541,286.150 128.985 M243.540 130.400 C 243.770 131.060,244.141 131.600,244.365 131.600 C 245.111 131.600,245.706 133.191,245.191 133.811 C 244.799 134.283,244.552 134.240,243.600 133.537 C 242.798 132.944,242.060 132.752,241.037 132.872 C 239.634 133.035,239.600 133.007,239.600 131.664 C 239.600 129.125,242.744 128.116,243.540 130.400 M228.386 131.100 C 228.372 132.593,228.369 132.596,227.819 131.601 C 227.430 130.899,227.390 130.454,227.682 130.101 C 228.312 129.342,228.401 129.469,228.386 131.100 M290.788 131.977 C 291.119 132.597,291.014 132.959,290.269 133.764 C 289.128 134.994,288.400 134.509,288.400 132.520 C 288.400 130.959,290.043 130.585,290.788 131.977 M249.312 134.385 C 249.425 134.817,249.311 135.336,249.059 135.538 C 248.556 135.941,246.000 135.681,246.000 135.227 C 246.000 134.965,248.285 133.683,248.853 133.626 C 248.993 133.612,249.199 133.953,249.312 134.385 M287.139 134.648 C 288.166 134.853,288.313 135.015,288.003 135.595 C 287.598 136.350,285.645 136.258,285.126 135.459 C 284.516 134.519,285.171 134.254,287.139 134.648 M136.393 144.314 C 135.840 144.752,134.715 145.392,133.893 145.735 C 132.551 146.296,132.397 146.513,132.370 147.880 C 132.097 161.761,132.287 235.432,132.597 235.826 C 133.241 236.647,146.695 236.806,147.220 236.000 C 147.469 235.618,147.593 219.250,147.563 190.872 L 147.515 146.344 146.458 145.896 C 145.876 145.649,144.997 145.092,144.504 144.658 C 143.127 143.444,137.777 143.217,136.393 144.314 M263.200 143.853 C 262.870 143.985,262.374 144.378,262.097 144.727 C 261.820 145.076,261.010 145.555,260.297 145.791 C 259.120 146.181,259.008 146.357,259.087 147.698 C 259.134 148.510,258.906 149.932,258.580 150.857 C 258.072 152.296,257.978 158.263,257.931 192.169 C 257.900 213.966,257.863 232.583,257.849 233.541 C 257.831 234.770,258.033 235.435,258.536 235.803 C 259.491 236.501,267.398 236.958,271.200 236.534 L 274.200 236.200 274.200 192.400 C 274.200 147.734,274.167 146.634,272.829 146.209 C 272.406 146.075,271.372 145.497,270.530 144.924 C 268.998 143.882,264.705 143.254,263.200 143.853 M264.700 146.676 C 264.315 146.776,263.685 146.776,263.300 146.676 C 262.915 146.575,263.230 146.493,264.000 146.493 C 264.770 146.493,265.085 146.575,264.700 146.676 M210.359 229.700 L 210.318 231.400 209.991 230.010 C 209.691 228.735,209.776 228.000,210.224 228.000 C 210.321 228.000,210.382 228.765,210.359 229.700 M102.087 248.535 C 101.586 248.814,101.265 249.132,101.376 249.243 C 101.714 249.580,101.750 302.234,101.413 302.779 C 101.228 303.079,101.325 303.434,101.649 303.639 C 102.250 304.019,155.554 304.146,156.536 303.769 C 157.598 303.362,157.495 269.386,156.431 268.816 C 155.094 268.101,123.817 268.257,123.215 268.982 C 122.665 269.645,122.600 281.160,123.143 281.703 C 123.319 281.879,127.560 282.084,132.567 282.158 C 141.274 282.288,141.709 282.331,142.536 283.159 C 143.515 284.139,143.674 287.547,142.790 288.612 C 142.080 289.467,116.741 289.493,116.033 288.640 C 115.355 287.823,115.601 262.637,116.294 261.946 C 116.668 261.572,121.570 261.416,136.494 261.304 C 148.305 261.216,156.354 261.003,156.585 260.773 C 157.166 260.195,157.325 249.232,156.762 248.554 C 156.112 247.771,103.496 247.753,102.087 248.535 M175.646 248.544 C 175.318 248.940,175.223 256.570,175.297 276.444 L 175.400 303.800 181.569 303.911 C 185.588 303.983,187.889 303.871,188.169 303.591 C 188.465 303.295,188.607 296.831,188.622 282.972 C 188.648 259.849,188.385 261.429,192.200 261.429 C 195.921 261.429,195.659 259.810,195.734 283.248 L 195.800 303.800 202.400 303.899 C 206.030 303.954,209.180 303.864,209.400 303.699 C 209.661 303.504,209.731 297.436,209.600 286.200 C 209.371 266.489,209.505 263.517,210.678 262.344 C 211.844 261.179,214.375 260.927,215.529 261.862 L 216.447 262.605 216.523 283.203 L 216.600 303.800 224.000 303.800 L 231.400 303.800 231.502 276.443 C 231.575 256.610,231.479 248.937,231.153 248.543 C 230.482 247.735,176.317 247.736,175.646 248.544 M248.243 248.633 C 247.708 250.027,247.979 260.284,248.563 260.770 C 249.478 261.528,303.550 261.524,304.030 260.765 C 304.591 259.880,304.493 249.053,303.920 248.480 C 303.091 247.651,248.562 247.801,248.243 248.633 M250.565 249.699 C 249.998 250.145,249.380 250.891,249.192 251.355 C 248.927 252.011,248.845 251.793,248.825 250.380 L 248.800 248.561 250.199 248.724 L 251.597 248.887 250.565 249.699 M178.400 249.164 C 177.001 249.955,176.000 250.065,176.000 249.427 C 176.000 248.967,176.399 248.803,177.500 248.812 C 178.531 248.821,178.812 248.931,178.400 249.164 M230.800 249.414 C 230.800 249.904,230.639 249.942,230.000 249.600 C 229.560 249.365,229.200 249.088,229.200 248.986 C 229.200 248.884,229.560 248.800,230.000 248.800 C 230.453 248.800,230.800 249.067,230.800 249.414 M303.600 249.609 C 303.600 250.413,303.078 250.261,301.233 248.921 C 301.142 248.854,301.637 248.800,302.333 248.800 C 303.338 248.800,303.600 248.967,303.600 249.609 M249.760 259.935 C 249.931 260.212,249.796 260.400,249.424 260.400 C 248.950 260.400,248.810 259.991,248.841 258.700 C 248.880 257.091,248.898 257.066,249.177 258.235 C 249.339 258.914,249.602 259.679,249.760 259.935 M303.600 259.600 C 303.600 260.053,303.333 260.400,302.986 260.400 C 302.496 260.400,302.458 260.239,302.800 259.600 C 303.035 259.160,303.312 258.800,303.414 258.800 C 303.516 258.800,303.600 259.160,303.600 259.600 M248.480 268.880 C 247.951 269.409,247.832 280.031,248.340 281.319 C 248.789 282.458,303.604 282.481,304.052 281.342 C 304.566 280.035,304.454 269.414,303.920 268.880 C 303.226 268.186,249.174 268.186,248.480 268.880 M124.976 269.787 C 123.977 270.543,123.600 270.547,123.600 269.800 C 123.600 269.415,123.986 269.200,124.676 269.200 C 125.709 269.200,125.721 269.224,124.976 269.787 M155.719 269.641 C 155.402 269.958,155.068 269.961,154.539 269.654 C 153.891 269.277,153.946 269.223,154.980 269.212 C 155.841 269.203,156.040 269.320,155.719 269.641 M250.800 269.330 C 250.800 269.402,250.373 269.862,249.851 270.352 L 248.902 271.244 248.706 270.222 C 248.534 269.319,248.644 269.200,249.655 269.200 C 250.285 269.200,250.800 269.259,250.800 269.330 M303.600 270.010 C 303.600 270.793,303.556 270.798,302.300 270.159 C 300.490 269.239,300.483 269.200,302.133 269.200 C 303.340 269.200,303.600 269.344,303.600 270.010 M114.683 286.895 C 114.587 287.393,114.505 287.080,114.501 286.200 C 114.496 285.320,114.575 284.913,114.675 285.295 C 114.775 285.678,114.779 286.398,114.683 286.895 M248.177 289.715 C 248.069 289.998,248.029 293.283,248.090 297.015 L 248.200 303.800 276.200 303.800 L 304.200 303.800 304.310 297.292 C 304.378 293.257,304.259 290.484,303.996 289.992 C 303.458 288.988,248.561 288.715,248.177 289.715 M249.293 293.026 C 249.020 294.453,248.799 294.215,248.806 292.500 C 248.810 291.544,248.933 291.191,249.146 291.526 C 249.329 291.815,249.395 292.490,249.293 293.026 M249.986 303.300 C 249.994 303.465,249.730 303.600,249.400 303.600 C 248.987 303.600,248.804 303.195,248.814 302.300 L 248.828 301.000 249.400 302.000 C 249.714 302.550,249.978 303.135,249.986 303.300 M197.600 303.276 C 197.600 303.454,197.330 303.600,197.000 303.600 C 196.609 303.600,196.404 303.217,196.413 302.500 C 196.425 301.446,196.450 301.433,197.013 302.176 C 197.336 302.604,197.600 303.099,197.600 303.276 M303.600 302.600 C 303.600 303.216,303.373 303.600,303.009 303.600 C 302.523 303.600,302.499 303.421,302.873 302.600 C 303.123 302.050,303.390 301.600,303.464 301.600 C 303.539 301.600,303.600 302.050,303.600 302.600 M177.200 303.249 C 177.200 303.442,176.930 303.600,176.600 303.600 C 176.255 303.600,176.000 303.239,176.000 302.751 C 176.000 302.042,176.099 301.984,176.600 302.400 C 176.930 302.674,177.200 303.056,177.200 303.249 M155.745 303.000 C 155.904 303.415,155.718 303.600,155.138 303.600 C 154.440 303.600,154.384 303.501,154.800 303.000 C 155.074 302.670,155.347 302.400,155.406 302.400 C 155.466 302.400,155.618 302.670,155.745 303.000 M230.800 303.200 C 230.800 303.420,230.305 303.587,229.700 303.572 C 228.725 303.547,228.691 303.505,229.400 303.200 C 230.493 302.731,230.800 302.731,230.800 303.200 M173.782 329.600 C 173.782 338.070,173.835 341.535,173.899 337.300 C 173.964 333.065,173.964 326.135,173.899 321.900 C 173.835 317.665,173.782 321.130,173.782 329.600 M252.368 315.900 C 252.559 317.281,252.587 317.309,252.719 316.251 C 252.798 315.619,252.705 314.945,252.512 314.752 C 252.310 314.550,252.249 315.040,252.368 315.900 M111.337 317.800 C 111.339 319.560,111.409 320.230,111.493 319.289 C 111.578 318.349,111.577 316.909,111.491 316.089 C 111.405 315.270,111.336 316.040,111.337 317.800 M126.982 330.600 C 126.982 339.400,127.035 342.943,127.100 338.473 C 127.164 334.004,127.164 326.804,127.099 322.473 C 127.035 318.143,126.982 321.800,126.982 330.600 M152.534 317.600 C 152.534 319.250,152.605 319.925,152.691 319.100 C 152.778 318.275,152.778 316.925,152.691 316.100 C 152.605 315.275,152.534 315.950,152.534 317.600 M195.382 330.000 C 195.382 338.470,195.435 341.935,195.499 337.700 C 195.564 333.465,195.564 326.535,195.499 322.300 C 195.435 318.065,195.382 321.530,195.382 330.000 M210.981 329.800 C 210.981 338.160,211.034 341.637,211.099 337.526 C 211.164 333.416,211.164 326.576,211.100 322.326 C 211.035 318.077,210.982 321.440,210.981 329.800 M216.182 330.000 C 216.182 338.470,216.235 341.935,216.299 337.700 C 216.364 333.465,216.364 326.535,216.299 322.300 C 216.235 318.065,216.182 321.530,216.182 330.000 M257.693 316.000 C 257.693 316.770,257.775 317.085,257.876 316.700 C 257.976 316.315,257.976 315.685,257.876 315.300 C 257.775 314.915,257.693 315.230,257.693 316.000 M274.493 316.000 C 274.493 316.770,274.575 317.085,274.676 316.700 C 274.776 316.315,274.776 315.685,274.676 315.300 C 274.575 314.915,274.493 315.230,274.493 316.000 M152.578 334.800 C 152.578 341.510,152.632 344.255,152.699 340.900 C 152.766 337.545,152.766 332.055,152.699 328.700 C 152.632 325.345,152.578 328.090,152.578 334.800 M189.765 331.400 C 189.766 335.360,189.826 336.926,189.898 334.880 C 189.971 332.834,189.971 329.594,189.898 327.680 C 189.824 325.766,189.765 327.440,189.765 331.400 M111.284 335.876 C 111.238 341.858,111.335 346.837,111.500 346.939 C 111.665 347.041,111.754 343.857,111.698 339.862 C 111.506 326.304,111.368 324.969,111.284 335.876 M142.311 347.493 C 143.251 347.578,144.691 347.577,145.511 347.491 C 146.330 347.405,145.560 347.336,143.800 347.337 C 142.040 347.339,141.370 347.409,142.311 347.493 M183.705 347.487 C 184.314 347.579,185.214 347.577,185.705 347.482 C 186.197 347.387,185.700 347.311,184.600 347.314 C 183.500 347.317,183.097 347.395,183.705 347.487 M208.500 347.476 C 208.885 347.576,209.515 347.576,209.900 347.476 C 210.285 347.375,209.970 347.293,209.200 347.293 C 208.430 347.293,208.115 347.375,208.500 347.476 M218.505 347.487 C 219.114 347.579,220.014 347.577,220.505 347.482 C 220.997 347.387,220.500 347.311,219.400 347.314 C 218.300 347.317,217.897 347.395,218.505 347.487 " stroke="none" fill="#287ec1" fill-rule="evenodd"></path><path id="path1" d="M209.856 228.310 C 209.750 228.480,209.811 229.245,209.991 230.010 L 210.318 231.400 210.359 229.700 C 210.399 228.056,210.256 227.662,209.856 228.310 M248.825 250.380 C 248.845 251.793,248.927 252.011,249.192 251.355 C 249.380 250.891,249.998 250.145,250.565 249.699 L 251.597 248.887 250.199 248.724 L 248.800 248.561 248.825 250.380 M176.000 249.427 C 176.000 249.892,176.232 249.983,176.900 249.779 C 178.804 249.196,179.035 248.825,177.500 248.812 C 176.399 248.803,176.000 248.967,176.000 249.427 M229.200 248.986 C 229.200 249.088,229.560 249.365,230.000 249.600 C 230.639 249.942,230.800 249.904,230.800 249.414 C 230.800 249.067,230.453 248.800,230.000 248.800 C 229.560 248.800,229.200 248.884,229.200 248.986 M301.233 248.921 C 303.078 250.261,303.600 250.413,303.600 249.609 C 303.600 248.967,303.338 248.800,302.333 248.800 C 301.637 248.800,301.142 248.854,301.233 248.921 M248.841 258.700 C 248.810 259.991,248.950 260.400,249.424 260.400 C 249.796 260.400,249.931 260.212,249.760 259.935 C 249.602 259.679,249.339 258.914,249.177 258.235 C 248.898 257.066,248.880 257.091,248.841 258.700 M302.800 259.600 C 302.458 260.239,302.496 260.400,302.986 260.400 C 303.333 260.400,303.600 260.053,303.600 259.600 C 303.600 259.160,303.516 258.800,303.414 258.800 C 303.312 258.800,303.035 259.160,302.800 259.600 M123.600 269.800 C 123.600 270.547,123.977 270.543,124.976 269.787 C 125.721 269.224,125.709 269.200,124.676 269.200 C 123.986 269.200,123.600 269.415,123.600 269.800 M154.539 269.654 C 155.068 269.961,155.402 269.958,155.719 269.641 C 156.040 269.320,155.841 269.203,154.980 269.212 C 153.946 269.223,153.891 269.277,154.539 269.654 M248.706 270.222 L 248.902 271.244 249.851 270.352 C 251.045 269.230,251.040 269.200,249.655 269.200 C 248.644 269.200,248.534 269.319,248.706 270.222 M300.833 269.349 C 301.985 270.379,303.600 270.765,303.600 270.010 C 303.600 269.344,303.340 269.200,302.133 269.200 C 301.327 269.200,300.742 269.267,300.833 269.349 M114.501 286.200 C 114.505 287.080,114.587 287.393,114.683 286.895 C 114.779 286.398,114.775 285.678,114.675 285.295 C 114.575 284.913,114.496 285.320,114.501 286.200 M248.806 292.500 C 248.803 293.325,248.869 294.000,248.953 294.000 C 249.300 294.000,249.454 292.013,249.146 291.526 C 248.933 291.191,248.810 291.544,248.806 292.500 M248.814 302.300 C 248.804 303.195,248.987 303.600,249.400 303.600 C 250.136 303.600,250.136 303.288,249.400 302.000 L 248.828 301.000 248.814 302.300 M196.413 302.500 C 196.404 303.217,196.609 303.600,197.000 303.600 C 197.757 303.600,197.761 303.166,197.013 302.176 C 196.450 301.433,196.425 301.446,196.413 302.500 M302.873 302.600 C 302.499 303.421,302.523 303.600,303.009 303.600 C 303.373 303.600,303.600 303.216,303.600 302.600 C 303.600 302.050,303.539 301.600,303.464 301.600 C 303.390 301.600,303.123 302.050,302.873 302.600 M176.000 302.751 C 176.000 303.239,176.255 303.600,176.600 303.600 C 176.930 303.600,177.200 303.442,177.200 303.249 C 177.200 303.056,176.930 302.674,176.600 302.400 C 176.099 301.984,176.000 302.042,176.000 302.751 M154.800 303.000 C 154.384 303.501,154.440 303.600,155.138 303.600 C 155.718 303.600,155.904 303.415,155.745 303.000 C 155.618 302.670,155.466 302.400,155.406 302.400 C 155.347 302.400,155.074 302.670,154.800 303.000 M229.400 303.200 C 228.691 303.505,228.725 303.547,229.700 303.572 C 230.305 303.587,230.800 303.420,230.800 303.200 C 230.800 302.731,230.493 302.731,229.400 303.200 M112.095 314.333 C 111.700 314.584,111.613 318.153,111.695 330.826 L 111.800 347.000 119.318 347.000 L 126.835 347.000 126.809 330.848 C 126.795 321.964,126.686 314.539,126.568 314.348 C 126.298 313.911,112.782 313.897,112.095 314.333 M132.444 314.547 C 132.119 314.939,132.020 319.603,132.095 331.047 L 132.200 347.000 139.800 347.000 L 147.400 347.000 147.505 331.047 C 147.580 319.603,147.481 314.939,147.156 314.547 C 146.804 314.123,145.147 314.000,139.800 314.000 C 134.453 314.000,132.796 314.123,132.444 314.547 M153.067 314.267 C 152.920 314.413,152.800 321.887,152.800 330.875 L 152.800 347.217 160.500 347.109 L 168.200 347.000 168.282 331.019 C 168.338 320.070,168.229 314.875,167.933 314.519 C 167.473 313.965,153.604 313.729,153.067 314.267 M174.921 314.280 L 174.042 314.450 173.921 330.525 C 173.854 339.366,173.860 346.690,173.932 346.800 C 174.127 347.094,187.166 347.295,188.601 347.026 L 189.826 346.796 189.791 330.711 L 189.755 314.626 188.778 314.353 C 187.723 314.058,176.369 313.998,174.921 314.280 M196.122 314.316 C 195.150 314.934,195.226 346.793,196.200 347.032 C 196.640 347.140,200.128 347.177,203.952 347.114 L 210.904 347.000 210.828 330.823 C 210.786 321.925,210.662 314.500,210.552 314.323 C 210.299 313.913,196.765 313.907,196.122 314.316 M216.644 314.329 C 216.532 314.510,216.412 321.935,216.377 330.829 L 216.312 347.000 223.577 347.200 C 227.920 347.320,230.995 347.247,231.221 347.020 C 231.952 346.287,231.706 314.526,230.967 314.243 C 230.006 313.874,216.876 313.953,216.644 314.329 M236.983 314.501 C 236.877 314.776,236.838 322.201,236.895 331.001 L 237.000 347.000 244.600 347.000 L 252.200 347.000 252.305 331.047 C 252.380 319.603,252.281 314.939,251.956 314.547 C 251.326 313.787,237.273 313.744,236.983 314.501 M258.917 314.276 L 258.034 314.451 257.917 330.526 C 257.853 339.367,257.860 346.690,257.932 346.800 C 258.005 346.910,261.742 347.055,266.237 347.123 L 274.409 347.246 274.304 330.723 L 274.200 314.200 267.000 314.150 C 263.040 314.123,259.403 314.179,258.917 314.276 M280.095 314.333 C 279.700 314.584,279.613 318.153,279.695 330.826 L 279.800 347.000 287.400 347.000 L 295.000 347.000 295.105 331.047 C 295.180 319.603,295.081 314.939,294.756 314.547 C 294.246 313.932,281.030 313.739,280.095 314.333 " stroke="none" fill="#1c206a" fill-rule="evenodd"></path><path id="path3" d="M198.141 32.992 C 193.140 35.452,193.725 22.172,193.551 137.148 L 193.400 236.868 194.522 237.834 C 196.063 239.160,210.172 239.357,211.338 238.069 C 211.950 237.392,212.000 229.816,211.999 137.169 C 211.999 24.337,212.307 34.841,208.958 33.606 C 208.054 33.273,207.021 32.754,206.662 32.454 C 205.183 31.220,201.237 31.469,198.141 32.992 M206.000 33.916 C 209.287 35.018,209.554 35.157,210.145 36.082 C 210.654 36.879,210.766 48.672,210.992 125.400 C 211.135 174.020,211.317 218.564,211.395 224.387 C 211.507 232.630,211.419 235.259,210.998 236.266 L 210.458 237.558 203.479 237.558 C 196.789 237.558,196.465 237.521,195.667 236.671 L 194.833 235.784 195.077 200.192 C 195.211 180.616,195.327 163.970,195.334 163.200 C 195.341 162.430,195.336 158.290,195.322 154.000 C 195.241 128.618,195.849 35.724,196.099 35.340 C 196.263 35.087,197.343 34.654,198.499 34.378 C 199.654 34.101,201.140 33.639,201.800 33.352 C 202.460 33.064,203.270 32.938,203.600 33.070 C 203.930 33.203,205.010 33.583,206.000 33.916 M178.400 61.175 C 177.498 61.452,175.573 62.593,173.400 64.138 C 172.298 64.922,171.910 236.192,173.006 237.865 C 173.865 239.176,189.380 239.348,190.546 238.059 C 191.324 237.200,191.585 67.066,190.812 65.032 C 190.603 64.482,189.690 63.620,188.782 63.116 C 187.874 62.612,186.562 61.885,185.866 61.501 C 184.533 60.764,180.338 60.581,178.400 61.175 M220.400 61.152 C 219.461 61.462,216.813 63.072,215.700 64.010 C 214.637 64.906,214.699 236.783,215.762 237.958 C 216.892 239.207,231.055 239.265,232.178 238.025 C 232.879 237.250,233.237 66.404,232.542 64.592 C 231.569 62.058,224.084 59.937,220.400 61.152 M186.360 63.207 C 187.328 63.863,188.260 64.400,188.431 64.400 C 189.948 64.400,190.007 65.739,190.053 101.370 C 190.077 120.306,190.173 158.300,190.266 185.800 C 190.412 229.208,190.357 235.906,189.849 236.600 C 188.975 237.797,174.657 237.838,173.785 236.646 C 173.330 236.024,173.262 232.776,173.399 218.046 C 173.490 208.231,173.591 170.230,173.624 133.600 C 173.678 74.351,173.753 66.868,174.304 65.800 C 175.029 64.395,175.929 63.631,176.880 63.613 C 177.254 63.606,177.704 63.356,177.880 63.059 C 178.805 61.494,183.965 61.584,186.360 63.207 M228.063 63.040 C 229.238 63.613,230.470 64.217,230.800 64.384 C 231.990 64.984,232.481 235.842,231.296 236.911 C 230.721 237.430,229.401 237.540,223.699 237.547 L 216.797 237.555 216.222 236.443 C 215.750 235.529,215.674 233.233,215.798 223.565 C 215.880 217.094,216.071 178.770,216.221 138.400 C 216.371 98.030,216.565 64.878,216.652 64.729 C 216.740 64.580,217.484 64.239,218.306 63.971 C 219.128 63.703,220.229 63.150,220.754 62.742 C 222.196 61.620,225.416 61.752,228.063 63.040 M157.800 103.797 C 157.580 103.870,156.936 104.031,156.370 104.155 C 155.803 104.279,154.795 104.901,154.129 105.537 C 153.463 106.173,152.667 106.778,152.359 106.880 C 151.559 107.147,151.312 236.049,152.109 237.600 L 152.623 238.600 159.811 238.718 C 168.091 238.853,169.413 238.697,170.049 237.508 C 170.389 236.872,170.489 220.083,170.436 172.426 L 170.364 108.200 168.420 106.242 C 166.833 104.645,166.118 104.226,164.538 103.966 C 162.598 103.647,158.552 103.546,157.800 103.797 M241.000 104.036 C 240.120 104.258,238.606 105.135,237.636 105.986 L 235.872 107.532 235.683 171.499 C 235.482 239.575,235.446 238.145,237.360 238.626 C 239.699 239.213,253.160 238.614,253.882 237.891 C 254.555 237.217,254.585 233.950,254.474 172.491 L 254.358 107.800 252.679 106.284 C 250.064 103.923,245.178 102.982,241.000 104.036 M166.807 106.619 L 168.387 108.200 168.595 153.400 C 168.709 178.260,168.894 207.000,169.007 217.267 L 169.211 235.933 168.151 236.767 C 166.579 238.004,153.471 238.055,152.814 236.826 C 152.336 235.932,152.241 167.735,152.666 130.656 L 152.932 107.512 154.066 107.117 C 154.690 106.900,155.200 106.551,155.200 106.342 C 155.200 105.386,157.849 104.786,161.513 104.911 L 165.226 105.038 166.807 106.619 M250.710 106.375 L 252.419 107.749 252.432 120.575 C 252.439 127.629,252.523 140.780,252.618 149.800 C 252.714 158.820,252.866 181.500,252.956 200.200 C 253.046 218.900,253.235 234.483,253.376 234.830 C 253.536 235.224,253.231 235.860,252.561 236.530 L 251.491 237.600 244.555 237.600 C 237.740 237.600,237.608 237.584,237.010 236.672 C 236.515 235.916,236.319 136.559,236.797 128.400 C 236.816 128.070,236.829 123.390,236.826 118.000 L 236.820 108.200 238.310 106.907 C 241.370 104.250,247.728 103.977,250.710 106.375 M115.212 124.438 C 113.014 124.869,110.487 127.216,110.050 129.233 C 109.887 129.985,109.764 154.601,109.777 183.935 L 109.800 237.270 110.744 238.035 C 112.152 239.175,126.310 239.204,127.338 238.069 C 128.391 236.905,128.354 128.311,127.300 127.385 C 123.518 124.065,120.665 123.370,115.212 124.438 M284.200 124.197 C 283.980 124.270,283.321 124.435,282.736 124.564 C 280.988 124.947,278.409 127.578,278.001 129.392 C 277.687 130.787,277.335 222.622,277.590 236.318 C 277.630 238.441,290.832 240.144,294.963 238.559 C 296.361 238.022,296.412 235.915,296.337 181.937 C 296.260 127.048,296.261 127.064,294.745 126.583 C 294.250 126.425,293.565 125.952,293.222 125.531 C 292.406 124.527,286.035 123.585,284.200 124.197 M124.000 126.300 C 124.400 126.795,124.992 127.200,125.315 127.200 C 126.471 127.200,126.874 128.374,126.990 132.085 C 127.356 143.793,127.193 236.066,126.804 236.792 C 126.369 237.605,113.287 238.021,112.118 237.260 C 110.808 236.406,110.687 235.105,110.941 224.622 C 111.080 218.890,111.231 194.887,111.278 171.281 L 111.363 128.363 112.992 127.028 C 115.613 124.880,122.483 124.426,124.000 126.300 M291.200 125.966 C 291.970 126.386,293.180 127.005,293.889 127.340 L 295.179 127.950 295.195 167.475 C 295.204 189.214,295.295 213.390,295.397 221.200 C 295.631 239.180,296.453 237.369,287.989 237.509 C 280.698 237.630,279.827 237.528,279.384 236.503 C 279.050 235.730,279.092 155.245,279.435 138.600 L 279.649 128.200 280.925 127.082 C 283.328 124.975,288.381 124.426,291.200 125.966 M136.071 142.796 C 135.341 142.969,134.402 143.477,133.985 143.924 C 133.568 144.371,132.870 144.851,132.434 144.989 C 131.147 145.398,131.161 144.920,131.106 191.969 C 131.057 235.317,131.085 237.210,131.789 237.988 C 132.619 238.905,146.412 239.250,148.013 238.393 C 149.499 237.598,149.549 235.906,149.407 191.325 C 149.258 144.567,149.323 145.983,147.285 144.967 C 146.781 144.716,146.146 144.206,145.874 143.833 C 144.952 142.573,139.467 141.993,136.071 142.796 M262.340 142.751 C 261.538 142.921,260.334 143.497,259.665 144.030 C 258.997 144.564,257.992 145.321,257.431 145.714 L 256.413 146.428 256.403 191.811 C 256.394 236.725,256.402 237.202,257.197 237.997 C 258.242 239.042,273.239 239.245,274.624 238.232 C 275.413 237.655,276.121 154.277,275.389 148.086 C 275.130 145.898,274.563 145.283,270.967 143.289 C 269.845 142.667,264.348 142.324,262.340 142.751 M142.790 143.632 C 143.775 143.859,144.675 144.194,144.790 144.377 C 144.906 144.560,145.591 145.045,146.313 145.455 L 147.625 146.200 147.781 150.000 C 148.353 164.008,148.023 236.111,147.384 236.818 C 146.774 237.491,146.076 237.551,139.662 237.479 L 132.610 237.400 132.180 236.400 C 131.877 235.696,131.816 222.214,131.975 190.828 L 132.200 146.256 134.200 145.073 C 137.447 143.153,139.335 142.836,142.790 143.632 M271.064 144.699 C 272.038 145.304,273.233 146.099,273.718 146.465 L 274.600 147.129 274.736 191.685 C 274.865 233.688,274.833 236.275,274.174 236.821 C 273.217 237.615,258.713 237.674,257.927 236.887 C 257.389 236.349,257.332 155.083,257.865 149.083 C 258.091 146.543,258.188 146.324,259.353 145.734 C 260.039 145.387,260.908 144.834,261.284 144.505 C 263.153 142.867,268.280 142.968,271.064 144.699 M128.228 246.703 C 103.643 246.796,100.987 246.868,100.328 247.465 C 99.637 248.090,99.600 249.547,99.600 276.039 L 99.600 303.955 100.489 304.577 C 101.693 305.420,156.343 305.520,158.000 304.682 L 159.000 304.177 159.104 286.554 C 159.207 269.058,159.202 268.926,158.363 268.166 C 157.564 267.443,156.620 267.393,141.458 267.276 C 118.467 267.099,120.293 266.337,120.474 276.026 C 120.641 284.969,119.513 284.140,131.913 284.438 C 143.403 284.714,142.000 284.471,142.000 286.182 C 142.000 288.037,141.838 288.057,128.200 287.916 L 117.000 287.800 116.894 275.948 L 116.788 264.096 117.694 263.854 C 118.192 263.720,127.097 263.608,137.481 263.605 C 161.258 263.599,159.200 264.467,159.200 254.443 C 159.200 245.546,163.297 246.570,128.228 246.703 M175.216 246.872 C 173.976 247.331,173.982 247.181,173.954 276.055 C 173.928 302.574,173.967 304.186,174.640 304.678 C 175.970 305.651,188.441 305.397,189.746 304.371 L 190.800 303.542 190.800 284.051 C 190.800 263.447,190.786 263.600,192.651 263.600 C 194.722 263.600,194.689 263.258,194.686 284.361 C 194.683 299.625,194.795 304.113,195.190 304.588 C 195.789 305.309,208.769 305.496,210.574 304.810 L 211.600 304.420 211.600 284.686 C 211.600 263.148,211.572 263.410,213.820 263.666 L 215.000 263.800 215.200 284.115 C 215.372 301.589,215.484 304.483,216.000 304.809 C 216.920 305.390,231.331 305.309,231.920 304.720 C 232.651 303.989,232.611 247.873,231.879 247.265 C 231.293 246.779,176.493 246.399,175.216 246.872 M263.235 246.705 C 253.002 246.777,248.101 246.950,247.735 247.254 C 246.896 247.950,246.973 261.497,247.823 262.711 L 248.445 263.600 276.194 263.600 L 303.942 263.600 304.771 262.546 C 305.790 261.250,306.052 248.771,305.087 247.452 C 304.515 246.668,294.337 246.487,263.235 246.705 M231.296 247.936 C 231.754 248.394,231.747 303.613,231.289 304.071 C 231.098 304.262,227.625 304.369,223.571 304.309 L 216.200 304.200 216.000 283.600 C 215.783 261.263,215.866 262.000,213.586 262.000 C 210.525 262.000,210.604 261.429,210.572 283.926 C 210.548 301.126,210.466 303.731,209.939 304.026 C 208.950 304.580,196.468 304.554,195.796 303.997 C 195.312 303.595,195.204 300.282,195.111 283.145 C 194.989 260.709,195.152 262.019,192.482 262.006 C 191.610 262.002,190.831 262.332,190.182 262.982 L 189.200 263.964 189.200 283.733 C 189.200 300.074,189.104 303.582,188.647 303.961 C 188.268 304.276,186.035 304.386,181.547 304.310 L 175.000 304.200 174.897 276.435 C 174.810 252.766,174.879 248.575,175.369 248.035 C 176.017 247.318,230.582 247.222,231.296 247.936 M304.069 247.862 C 304.987 248.693,305.183 260.123,304.299 261.332 C 303.835 261.967,301.783 262.018,276.199 262.028 L 248.600 262.039 248.106 261.120 C 247.382 259.773,247.409 248.656,248.138 248.052 C 248.519 247.736,256.586 247.575,275.838 247.500 C 290.777 247.442,303.076 247.351,303.169 247.297 C 303.261 247.244,303.666 247.498,304.069 247.862 M157.269 248.262 C 158.239 249.140,158.375 259.734,157.433 261.024 C 156.888 261.769,156.080 261.808,137.052 262.000 C 121.552 262.156,117.126 262.313,116.720 262.719 C 116.003 263.435,115.734 287.397,116.432 288.239 C 117.014 288.940,140.736 289.076,142.026 288.386 C 142.609 288.074,142.800 287.543,142.800 286.235 C 142.800 283.442,142.708 283.416,132.439 283.285 C 121.083 283.141,122.000 283.850,122.000 275.220 L 122.000 268.928 123.019 268.464 C 124.749 267.676,155.966 267.821,157.111 268.623 L 158.000 269.245 158.000 286.409 C 158.000 302.968,157.973 303.586,157.226 303.986 C 156.346 304.457,102.676 304.532,101.492 304.064 C 100.413 303.637,100.390 248.889,101.468 248.101 C 102.657 247.232,156.301 247.387,157.269 248.262 M248.400 267.492 C 248.070 267.617,247.668 267.918,247.506 268.160 C 247.046 268.849,247.143 282.746,247.614 283.626 C 248.017 284.380,248.757 284.400,276.205 284.400 L 304.382 284.400 305.000 283.456 C 305.512 282.675,305.600 281.272,305.509 275.367 L 305.400 268.223 304.400 267.717 C 303.368 267.196,249.745 266.980,248.400 267.492 M304.320 268.480 C 304.995 269.155,304.973 281.056,304.294 282.320 L 303.800 283.239 276.200 283.231 L 248.600 283.222 248.118 282.111 C 247.454 280.579,247.422 269.138,248.080 268.480 C 248.774 267.786,303.626 267.786,304.320 268.480 M247.664 288.523 C 247.027 289.291,246.984 303.857,247.617 304.620 C 248.375 305.534,304.056 305.487,304.971 304.571 C 305.906 303.637,305.906 289.563,304.971 288.629 C 304.106 287.763,248.380 287.660,247.664 288.523 M304.320 289.280 C 305.116 290.076,304.987 303.843,304.181 304.152 C 302.930 304.632,248.740 304.448,248.154 303.962 C 247.410 303.345,247.343 290.017,248.080 289.280 C 248.774 288.586,303.626 288.586,304.320 289.280 M110.789 313.477 C 110.245 313.849,109.676 314.337,109.525 314.560 C 109.373 314.784,109.236 322.114,109.219 330.850 L 109.188 346.732 110.248 347.566 C 111.241 348.348,111.806 348.400,119.245 348.400 L 127.182 348.400 127.816 347.431 C 128.886 345.799,128.521 314.170,127.424 313.367 C 126.182 312.460,112.139 312.553,110.789 313.477 M131.600 313.600 C 130.495 314.705,130.334 346.677,131.429 347.771 C 132.506 348.849,147.523 348.691,148.925 347.587 L 149.958 346.775 149.796 330.687 L 149.633 314.600 148.594 313.700 C 147.072 312.381,132.902 312.298,131.600 313.600 M152.300 313.220 C 151.334 313.800,151.207 347.176,152.168 347.974 C 153.028 348.687,169.244 348.396,170.140 347.651 C 171.298 346.688,171.129 314.822,169.959 313.762 C 168.972 312.868,153.669 312.398,152.300 313.220 M173.600 313.078 C 172.038 313.636,172.000 314.052,172.000 330.587 C 172.000 344.453,172.084 346.742,172.623 347.511 C 173.507 348.773,189.811 348.913,190.938 347.669 C 192.062 346.427,191.933 314.733,190.800 313.600 C 190.015 312.815,175.563 312.376,173.600 313.078 M194.500 313.459 L 193.200 314.100 193.186 319.850 C 193.117 348.633,193.066 346.924,194.017 347.694 C 195.216 348.665,210.792 348.773,211.586 347.816 C 212.463 346.760,212.231 313.958,211.342 313.308 C 210.226 312.492,196.206 312.618,194.500 313.459 M215.462 313.531 C 214.481 314.616,214.449 346.792,215.429 347.771 C 215.958 348.300,217.309 348.400,223.956 348.400 L 231.856 348.400 232.717 347.409 C 233.570 346.428,233.577 346.286,233.403 333.109 C 233.307 325.789,233.221 318.585,233.214 317.100 C 233.192 312.786,233.223 312.800,223.862 312.800 C 216.874 312.800,216.060 312.871,215.462 313.531 M236.251 313.406 C 235.330 314.327,235.251 347.213,236.168 347.974 C 237.028 348.687,253.244 348.396,254.140 347.651 C 255.298 346.688,255.129 314.822,253.959 313.762 C 252.755 312.671,237.297 312.360,236.251 313.406 M257.250 313.500 C 256.038 314.512,255.842 347.003,257.043 347.881 C 258.019 348.594,274.410 348.630,275.120 347.920 C 276.062 346.978,275.781 313.725,274.826 313.214 C 273.367 312.433,258.233 312.679,257.250 313.500 M278.500 313.596 L 277.200 314.388 277.200 330.784 L 277.200 347.179 278.380 347.790 C 280.142 348.701,294.858 348.685,295.771 347.771 C 296.810 346.733,296.713 314.407,295.669 313.462 C 294.471 312.378,280.316 312.488,278.500 313.596 M126.711 313.823 L 127.600 314.445 127.600 330.809 C 127.600 350.226,128.700 348.000,119.103 348.000 C 109.711 348.000,110.773 350.173,110.714 330.830 L 110.666 314.676 111.577 313.938 C 112.839 312.916,125.281 312.821,126.711 313.823 M147.456 313.800 L 148.400 314.418 148.400 330.795 C 148.400 350.220,149.484 348.000,140.000 348.000 C 136.041 348.000,132.821 347.825,132.374 347.586 C 131.229 346.973,131.157 314.288,132.299 313.649 C 133.543 312.953,146.357 313.080,147.456 313.800 M168.213 313.780 L 169.600 314.359 169.600 330.531 C 169.600 345.073,169.533 346.757,168.940 347.251 C 167.864 348.145,153.529 348.272,152.652 347.395 C 151.652 346.395,151.661 315.037,152.662 313.931 C 153.548 312.952,165.943 312.831,168.213 313.780 M189.900 313.924 L 190.800 314.428 190.800 330.565 C 190.800 345.084,190.734 346.757,190.139 347.251 C 189.629 347.674,187.720 347.800,181.801 347.800 C 175.882 347.800,173.972 347.674,173.462 347.251 C 172.620 346.553,172.431 314.675,173.265 314.160 C 174.946 313.121,188.131 312.934,189.900 313.924 M210.869 313.862 C 212.037 314.920,211.997 346.959,210.826 347.586 C 209.494 348.299,196.353 348.123,195.289 347.377 L 194.400 346.755 194.400 330.590 L 194.400 314.426 195.500 313.829 C 197.197 312.908,209.845 312.936,210.869 313.862 M231.472 313.811 L 232.400 314.418 232.400 330.478 C 232.400 344.860,232.331 346.613,231.738 347.269 C 230.970 348.117,217.871 348.387,216.374 347.586 C 215.294 347.008,215.153 315.157,216.225 313.972 C 217.108 312.997,230.021 312.860,231.472 313.811 M252.300 313.843 L 253.600 314.359 253.600 330.531 C 253.600 345.073,253.533 346.757,252.940 347.251 C 251.831 348.173,237.762 348.270,236.759 347.363 C 235.654 346.363,235.573 315.135,236.672 313.921 C 237.510 312.994,250.006 312.933,252.300 313.843 M274.484 313.876 C 275.686 314.964,275.578 346.970,274.370 347.616 C 273.232 348.225,258.218 347.980,257.581 347.341 C 257.115 346.875,256.944 314.523,257.404 314.062 C 258.384 313.083,273.426 312.918,274.484 313.876 M295.203 314.003 C 296.021 314.821,295.931 346.487,295.108 347.500 C 294.527 348.215,280.439 348.209,279.460 347.494 C 278.825 347.029,278.763 345.649,278.709 330.838 L 278.650 314.689 279.532 313.975 C 280.848 312.909,294.133 312.933,295.203 314.003 " stroke="none" fill="#9bb3d4" fill-rule="evenodd"></path><path id="path4" d="M201.800 33.353 C 201.140 33.640,199.654 34.101,198.499 34.378 C 197.343 34.654,196.263 35.087,196.099 35.340 C 195.849 35.724,195.241 128.618,195.322 154.000 C 195.336 158.290,195.341 162.430,195.334 163.200 C 195.327 163.970,195.211 180.616,195.077 200.192 L 194.833 235.784 195.667 236.671 C 196.956 238.044,210.124 238.051,210.876 236.679 C 211.337 235.837,211.421 161.292,210.961 160.829 C 210.868 160.735,210.798 177.493,210.806 198.069 C 210.814 218.645,210.723 235.736,210.603 236.049 C 210.424 236.513,209.262 236.599,204.292 236.514 C 200.941 236.457,197.724 236.408,197.143 236.405 C 196.511 236.402,195.974 236.118,195.809 235.700 C 195.564 235.079,195.569 182.642,195.818 155.000 C 195.940 141.351,196.385 56.332,196.393 44.909 C 196.401 34.144,195.983 34.827,202.641 34.705 C 207.270 34.620,208.800 34.899,208.800 35.827 C 208.800 36.158,209.180 36.395,209.700 36.387 C 210.964 36.370,208.776 34.404,207.478 34.391 C 206.995 34.386,205.815 34.026,204.856 33.591 C 203.897 33.156,203.087 32.807,203.056 32.816 C 203.025 32.824,202.460 33.066,201.800 33.353 M207.200 53.000 C 207.200 53.550,207.380 54.000,207.600 54.000 C 207.820 54.000,208.000 53.550,208.000 53.000 C 208.000 52.450,207.820 52.000,207.600 52.000 C 207.380 52.000,207.200 52.450,207.200 53.000 M198.253 57.515 C 198.130 57.713,198.216 58.550,198.444 59.376 L 198.859 60.876 199.834 59.553 C 200.371 58.826,200.749 58.044,200.674 57.815 C 200.500 57.282,198.546 57.040,198.253 57.515 M205.451 58.848 C 204.502 60.204,204.571 62.800,205.557 62.800 C 206.436 62.800,206.802 62.049,206.794 60.267 C 206.784 58.300,206.239 57.724,205.451 58.848 M178.800 62.290 C 178.470 62.415,178.056 62.761,177.880 63.059 C 177.704 63.356,177.254 63.606,176.880 63.613 C 175.929 63.631,175.029 64.395,174.304 65.800 C 173.753 66.868,173.680 74.346,173.643 133.800 C 173.620 170.540,173.506 201.590,173.390 202.800 C 173.274 204.010,173.342 205.900,173.542 207.000 C 173.778 208.297,173.934 198.455,173.987 179.000 C 174.087 141.849,174.145 140.201,175.454 137.455 L 176.101 136.100 177.220 137.350 L 178.340 138.600 178.827 137.400 C 179.309 136.212,179.390 132.456,178.964 131.094 C 178.658 130.118,178.201 130.509,177.124 132.671 L 176.200 134.524 175.930 132.762 C 175.160 127.743,175.680 105.755,176.556 106.296 C 176.799 106.447,177.617 106.577,178.374 106.587 C 179.585 106.602,179.790 106.760,180.086 107.902 C 180.457 109.332,180.666 109.428,181.700 108.643 C 182.747 107.848,182.548 107.210,181.169 106.934 C 180.377 106.775,179.809 106.350,179.579 105.744 C 179.197 104.739,177.351 104.409,176.557 105.203 C 175.805 105.955,175.134 98.941,175.721 96.474 L 176.227 94.349 177.277 95.174 C 178.584 96.203,178.654 96.201,178.938 95.114 C 179.222 94.030,178.587 93.583,177.169 93.866 L 176.101 94.080 175.823 90.340 C 175.671 88.283,175.577 82.010,175.614 76.400 C 175.652 70.790,175.619 65.840,175.541 65.400 C 175.421 64.720,175.669 64.570,177.200 64.400 C 178.574 64.247,179.094 63.987,179.395 63.300 C 179.939 62.059,183.327 61.987,184.336 63.196 C 184.701 63.633,185.720 64.141,186.600 64.323 C 187.913 64.595,188.164 64.794,188.000 65.427 C 187.890 65.852,187.792 79.790,187.782 96.400 C 187.773 113.010,187.728 126.899,187.682 127.265 C 187.615 127.807,187.115 127.934,184.991 127.950 C 181.686 127.976,180.852 128.361,181.950 129.355 C 182.674 130.010,182.903 130.018,185.065 129.466 C 187.945 128.731,187.724 128.440,188.001 133.318 C 188.175 136.361,188.426 137.690,188.989 138.539 C 189.599 139.461,189.653 139.823,189.272 140.434 C 188.571 141.556,188.680 144.804,189.447 145.652 C 190.008 146.272,190.040 146.830,189.689 149.883 C 189.466 151.818,189.413 155.020,189.570 157.000 C 190.299 166.170,189.722 235.354,188.912 235.892 C 187.841 236.603,176.224 236.756,174.656 236.080 L 173.512 235.586 173.721 226.893 C 173.844 221.767,173.800 219.267,173.612 220.800 C 173.030 225.555,173.130 235.752,173.768 236.624 C 174.655 237.836,188.962 237.815,189.849 236.600 C 190.357 235.906,190.412 229.208,190.266 185.800 C 190.173 158.300,190.077 120.306,190.053 101.370 C 190.007 65.739,189.948 64.400,188.431 64.400 C 188.260 64.400,187.328 63.863,186.360 63.207 C 184.619 62.027,180.738 61.557,178.800 62.290 M220.796 62.700 C 220.256 63.085,219.091 63.674,218.207 64.009 C 216.896 64.506,216.591 64.820,216.551 65.714 C 216.509 66.661,216.526 66.678,216.675 65.839 C 216.821 65.013,217.142 64.828,218.840 64.594 C 220.321 64.391,220.996 64.073,221.463 63.360 C 222.320 62.051,225.257 61.976,226.143 63.239 C 226.561 63.837,227.347 64.154,228.865 64.339 L 231.000 64.600 231.204 101.600 L 231.408 138.600 231.404 101.644 C 231.401 69.198,231.327 64.650,230.800 64.384 C 225.552 61.732,222.803 61.269,220.796 62.700 M202.883 66.104 C 202.291 66.825,202.848 73.012,203.500 72.960 C 203.775 72.938,204.416 72.893,204.924 72.860 C 207.183 72.713,207.502 71.832,205.927 70.088 C 205.133 69.209,204.361 67.932,204.211 67.250 C 203.891 65.795,203.450 65.414,202.883 66.104 M219.080 69.215 C 218.950 70.772,218.945 72.313,219.071 72.640 C 219.483 73.715,220.202 72.952,220.086 71.562 C 220.024 70.813,219.906 69.423,219.825 68.473 C 219.601 65.833,219.342 66.091,219.080 69.215 M225.471 66.711 C 224.966 66.821,224.827 67.075,225.020 67.535 C 225.173 67.901,225.419 68.740,225.566 69.400 C 225.713 70.060,226.050 70.582,226.316 70.560 C 226.582 70.538,227.141 70.493,227.557 70.460 C 228.477 70.387,228.784 69.696,228.517 68.299 C 228.305 67.189,226.822 66.416,225.471 66.711 M210.893 69.200 C 210.893 69.970,210.975 70.285,211.076 69.900 C 211.176 69.515,211.176 68.885,211.076 68.500 C 210.975 68.115,210.893 68.430,210.893 69.200 M198.627 69.157 C 198.501 69.360,198.551 69.938,198.737 70.442 C 199.073 71.350,199.078 71.348,199.285 70.270 C 199.492 69.184,199.061 68.454,198.627 69.157 M216.590 98.800 C 216.590 114.750,216.639 121.275,216.700 113.300 C 216.760 105.325,216.760 92.275,216.700 84.300 C 216.639 76.325,216.590 82.850,216.590 98.800 M177.600 71.192 C 177.076 71.523,177.091 71.662,177.714 72.286 C 178.312 72.883,178.486 72.908,178.777 72.436 C 179.476 71.307,178.706 70.493,177.600 71.192 M223.600 71.800 C 223.600 72.473,223.673 72.500,224.567 72.157 C 225.461 71.814,225.354 71.200,224.400 71.200 C 223.956 71.200,223.600 71.467,223.600 71.800 M178.267 73.467 C 177.822 73.912,177.951 89.600,178.400 89.600 C 178.654 89.600,178.800 86.600,178.800 81.400 C 178.800 76.890,178.740 73.200,178.667 73.200 C 178.593 73.200,178.413 73.320,178.267 73.467 M227.600 90.776 C 227.600 106.702,227.791 110.165,228.558 108.165 C 228.875 107.340,228.874 74.658,228.557 73.833 C 227.770 71.780,227.600 74.783,227.600 90.776 M179.143 97.059 C 176.956 97.669,178.528 100.800,181.021 100.800 C 182.658 100.800,182.781 100.611,182.452 98.600 C 182.183 96.954,181.183 96.488,179.143 97.059 M156.500 105.396 C 155.785 105.707,155.200 106.132,155.200 106.342 C 155.200 106.551,154.660 106.910,154.000 107.140 L 152.800 107.558 152.893 117.479 L 152.985 127.400 153.100 117.752 L 153.214 108.103 155.007 107.419 C 155.993 107.042,156.800 106.482,156.800 106.175 C 156.800 105.480,157.819 105.238,161.400 105.080 L 164.200 104.957 161.000 104.894 C 158.992 104.855,157.316 105.042,156.500 105.396 M241.129 105.173 C 240.541 105.361,239.326 106.104,238.429 106.824 L 236.800 108.134 236.891 116.167 L 236.982 124.200 237.100 116.084 C 237.204 108.821,237.289 107.942,237.908 107.714 C 238.289 107.574,239.216 106.996,239.968 106.429 C 242.039 104.871,247.925 104.657,249.283 106.091 C 249.787 106.624,250.535 107.183,250.944 107.334 C 251.650 107.594,251.685 108.283,251.635 120.904 C 251.606 128.217,251.698 136.630,251.841 139.600 C 252.517 153.704,252.434 235.299,251.743 236.063 C 251.011 236.871,248.393 236.965,240.800 236.455 L 237.000 236.200 236.789 226.400 L 236.579 216.600 236.489 226.211 C 236.373 238.700,235.593 237.600,244.568 237.600 L 251.491 237.600 252.561 236.530 C 253.231 235.860,253.536 235.224,253.376 234.830 C 253.235 234.483,253.046 218.900,252.956 200.200 C 252.866 181.500,252.714 158.820,252.618 149.800 C 252.523 140.780,252.439 127.629,252.432 120.575 L 252.419 107.749 250.710 106.375 C 248.893 104.914,243.903 104.288,241.129 105.173 M164.971 105.829 C 165.317 106.174,165.600 106.582,165.600 106.734 C 165.600 106.886,165.987 107.188,166.459 107.405 C 167.316 107.799,167.318 107.847,167.245 121.200 C 167.191 131.096,167.321 135.594,167.743 138.400 C 168.736 145.000,168.700 235.205,167.704 236.105 C 167.072 236.678,166.018 236.758,160.086 236.685 C 156.299 236.638,153.158 236.600,153.105 236.600 C 153.051 236.600,152.915 214.460,152.801 187.400 L 152.594 138.200 152.497 187.126 C 152.431 220.269,152.534 236.302,152.814 236.826 C 153.471 238.055,166.579 238.004,168.151 236.767 L 169.211 235.933 169.007 217.267 C 168.894 207.000,168.709 178.264,168.594 153.410 L 168.387 108.220 166.912 106.710 C 166.101 105.879,165.191 105.200,164.890 105.200 C 164.461 105.200,164.479 105.336,164.971 105.829 M159.504 107.875 C 158.394 108.165,159.697 110.400,160.977 110.400 C 161.503 110.400,162.016 110.625,162.117 110.900 C 162.247 111.255,162.432 111.277,162.755 110.975 C 163.784 110.014,161.893 107.346,160.400 107.652 C 160.290 107.674,159.887 107.775,159.504 107.875 M245.322 107.879 C 244.462 108.046,244.330 111.594,245.152 112.463 C 245.761 113.108,248.566 113.579,248.886 113.090 C 249.448 112.234,247.286 107.451,246.429 107.654 C 246.303 107.684,245.805 107.786,245.322 107.879 M155.639 115.000 C 155.652 116.396,155.707 116.490,156.070 115.741 C 156.360 115.141,156.356 114.658,156.055 114.141 C 155.697 113.525,155.627 113.669,155.639 115.000 M239.440 115.784 C 238.519 119.451,241.977 123.032,243.568 120.059 C 243.929 119.386,243.788 119.154,242.595 118.450 C 241.828 117.997,241.200 117.378,241.200 117.075 C 241.200 116.771,240.860 116.131,240.446 115.653 L 239.691 114.783 239.440 115.784 M199.500 115.911 C 198.609 116.099,198.245 117.550,198.507 119.873 C 198.921 123.542,200.803 122.865,200.794 119.051 C 200.787 116.321,200.529 115.695,199.500 115.911 M222.870 116.526 C 221.720 117.749,221.777 119.220,223.009 120.116 C 225.051 121.602,226.173 119.870,224.995 117.049 C 224.284 115.349,224.033 115.287,222.870 116.526 M182.070 117.726 C 180.627 119.262,181.501 120.883,184.000 121.308 C 184.770 121.439,185.165 121.450,184.879 121.333 C 184.473 121.166,184.496 121.017,184.981 120.660 C 185.483 120.290,185.528 119.931,185.210 118.828 C 184.576 116.630,183.466 116.240,182.070 117.726 M155.495 118.360 C 155.237 119.344,155.593 121.200,156.039 121.200 C 156.543 121.200,156.915 119.393,156.609 118.429 C 156.280 117.393,155.756 117.361,155.495 118.360 M219.200 118.991 C 219.200 120.330,219.238 120.366,220.200 119.927 C 221.293 119.429,221.464 118.824,220.720 118.080 C 219.817 117.177,219.200 117.547,219.200 118.991 M227.693 123.548 C 227.351 125.402,227.342 126.318,227.660 126.912 C 228.427 128.345,228.838 126.758,228.483 123.732 L 228.163 121.000 227.693 123.548 M242.194 122.810 C 242.055 123.035,242.070 123.800,242.227 124.510 C 242.478 125.639,242.553 125.700,242.829 125.000 C 243.104 124.302,243.147 124.339,243.172 125.288 C 243.216 126.997,246.223 128.299,247.253 127.055 C 248.052 126.089,247.411 125.200,245.915 125.200 C 245.512 125.200,244.980 124.756,244.733 124.213 C 244.485 123.669,244.129 123.320,243.942 123.436 C 243.754 123.552,243.600 123.367,243.600 123.024 C 243.600 122.327,242.587 122.173,242.194 122.810 M160.066 123.600 C 160.227 124.799,162.800 125.388,162.800 124.225 C 162.800 123.839,162.448 123.600,161.880 123.600 C 161.374 123.600,160.729 123.375,160.446 123.100 C 160.031 122.696,159.958 122.792,160.066 123.600 M118.800 125.464 C 122.653 125.670,123.200 125.859,123.200 126.984 C 123.200 128.042,123.796 128.654,124.196 128.007 C 124.334 127.783,124.842 127.579,125.324 127.554 C 126.100 127.512,126.112 127.485,125.429 127.311 C 125.005 127.203,124.347 126.728,123.965 126.257 C 123.355 125.504,122.842 125.395,119.736 125.363 C 117.500 125.339,117.156 125.376,118.800 125.464 M288.100 125.476 C 288.485 125.576,289.115 125.576,289.500 125.476 C 289.885 125.375,289.570 125.293,288.800 125.293 C 288.030 125.293,287.715 125.375,288.100 125.476 M112.952 127.112 L 111.304 128.600 111.248 171.400 C 111.218 194.940,111.079 218.890,110.941 224.622 C 110.603 238.588,109.890 237.504,119.448 237.559 L 126.380 237.599 126.890 236.499 C 127.298 235.619,127.359 225.270,127.195 184.600 L 126.990 133.800 126.895 184.851 C 126.820 225.127,126.694 235.984,126.300 236.291 C 125.510 236.906,112.358 236.568,111.922 235.922 C 111.431 235.194,111.621 128.745,112.115 128.100 C 112.326 127.825,112.853 127.600,113.286 127.600 C 113.731 127.600,114.164 127.261,114.278 126.821 C 114.390 126.393,114.779 125.964,115.141 125.868 C 115.650 125.733,115.664 125.685,115.200 125.658 C 114.870 125.639,113.858 126.294,112.952 127.112 M281.128 126.915 L 279.656 128.200 279.438 138.600 C 279.093 155.106,279.048 235.726,279.384 236.503 C 279.827 237.528,280.698 237.630,287.989 237.509 C 296.085 237.375,295.621 237.838,295.516 230.000 L 295.443 224.600 295.222 230.268 C 295.100 233.386,294.855 236.081,294.678 236.257 C 293.893 237.038,280.374 236.699,279.940 235.887 C 279.662 235.368,279.611 218.738,279.784 184.260 C 280.095 122.196,279.961 127.834,281.124 127.669 C 281.633 127.597,282.160 127.237,282.295 126.869 C 282.431 126.501,282.735 126.068,282.971 125.906 C 283.227 125.731,283.239 125.616,283.000 125.621 C 282.780 125.626,281.938 126.208,281.128 126.915 M290.873 126.600 C 291.241 127.407,291.605 127.594,292.764 127.568 C 293.554 127.551,293.930 127.434,293.600 127.309 C 293.270 127.183,292.571 126.747,292.046 126.340 C 290.736 125.323,290.332 125.413,290.873 126.600 M159.908 127.039 C 159.790 127.238,159.566 127.997,159.409 128.727 C 159.253 129.457,158.873 130.151,158.565 130.269 C 158.257 130.387,158.095 130.630,158.205 130.808 C 158.623 131.485,157.616 133.200,156.800 133.200 C 154.935 133.200,154.946 136.441,156.815 137.408 C 158.014 138.028,158.800 136.912,158.800 134.589 C 158.800 133.753,159.965 132.297,160.030 133.051 C 160.101 133.855,161.142 130.497,161.170 129.376 C 161.201 128.107,160.284 126.407,159.908 127.039 M205.298 127.700 C 204.689 128.463,204.272 132.674,204.776 132.985 C 205.388 133.363,205.299 136.620,204.663 137.148 C 204.368 137.393,204.006 137.473,203.859 137.326 C 203.513 136.980,202.429 138.409,202.413 139.232 C 202.406 139.580,202.830 140.095,203.356 140.376 C 203.882 140.658,204.508 141.318,204.747 141.844 C 205.210 142.860,205.823 143.028,206.800 142.406 C 207.326 142.071,207.300 141.739,206.588 139.712 C 205.641 137.016,205.722 135.766,206.863 135.468 C 207.319 135.348,207.562 135.062,207.413 134.820 C 207.265 134.582,206.977 134.491,206.772 134.617 C 206.568 134.744,206.390 134.612,206.378 134.324 C 206.366 134.036,206.309 133.035,206.252 132.100 C 206.195 131.165,206.294 130.378,206.474 130.350 C 206.653 130.322,207.025 130.278,207.300 130.250 C 207.577 130.222,207.855 129.531,207.924 128.700 C 208.056 127.105,206.306 126.439,205.298 127.700 M114.598 129.267 C 114.463 129.804,114.408 131.223,114.476 132.421 L 114.600 134.600 115.494 132.927 C 116.762 130.555,119.200 130.225,119.200 132.425 C 119.200 132.804,119.444 133.208,119.743 133.323 C 120.042 133.437,120.393 134.066,120.524 134.720 C 120.695 135.574,121.096 136.025,121.951 136.323 C 122.915 136.659,123.214 137.066,123.527 138.469 L 123.914 140.200 123.957 137.554 C 124.007 134.474,123.181 133.021,121.075 132.486 C 120.358 132.303,119.627 131.776,119.405 131.281 C 119.153 130.719,118.654 130.400,118.027 130.400 C 117.486 130.400,116.549 129.926,115.943 129.346 L 114.843 128.291 114.598 129.267 M210.974 138.400 C 210.974 144.010,211.030 146.305,211.099 143.500 C 211.168 140.695,211.168 136.105,211.099 133.300 C 211.030 130.495,210.974 132.790,210.974 138.400 M220.249 129.452 C 220.813 131.699,220.639 134.036,219.865 134.602 C 217.899 136.040,219.923 137.278,222.364 136.130 C 224.705 135.029,225.347 131.600,223.211 131.600 C 223.029 131.600,222.721 130.925,222.527 130.100 C 222.237 128.867,221.978 128.577,221.073 128.472 C 220.051 128.353,219.991 128.424,220.249 129.452 M283.600 128.824 C 283.600 129.057,283.420 129.136,283.200 129.000 C 282.951 128.846,282.801 129.629,282.801 131.076 L 282.803 133.400 283.601 132.090 C 284.041 131.370,284.400 130.617,284.400 130.417 C 284.400 130.217,284.743 129.945,285.163 129.812 C 286.624 129.348,286.506 128.400,284.987 128.400 C 284.224 128.400,283.600 128.591,283.600 128.824 M236.954 133.600 C 236.954 136.350,237.018 137.475,237.096 136.100 C 237.174 134.725,237.174 132.475,237.096 131.100 C 237.018 129.725,236.954 130.850,236.954 133.600 M294.914 130.600 C 294.917 131.700,294.995 132.103,295.087 131.495 C 295.179 130.886,295.177 129.986,295.082 129.495 C 294.987 129.003,294.911 129.500,294.914 130.600 M216.555 134.200 C 216.556 137.060,216.620 138.178,216.697 136.683 C 216.774 135.189,216.774 132.849,216.696 131.483 C 216.618 130.118,216.555 131.340,216.555 134.200 M240.300 129.757 C 238.848 130.859,239.370 133.066,241.037 132.872 C 242.060 132.752,242.798 132.944,243.600 133.537 C 244.552 134.240,244.799 134.283,245.191 133.811 C 245.706 133.191,245.111 131.600,244.365 131.600 C 244.141 131.600,243.770 131.060,243.540 130.400 C 243.075 129.066,241.597 128.772,240.300 129.757 M227.682 130.101 C 227.390 130.454,227.430 130.899,227.819 131.601 C 228.369 132.596,228.372 132.593,228.386 131.100 C 228.401 129.469,228.312 129.342,227.682 130.101 M152.934 133.200 C 152.934 134.850,153.005 135.525,153.091 134.700 C 153.178 133.875,153.178 132.525,153.091 131.700 C 153.005 130.875,152.934 131.550,152.934 133.200 M288.400 132.520 C 288.400 134.509,289.128 134.994,290.269 133.764 C 291.411 132.532,290.952 131.200,289.386 131.200 C 288.537 131.200,288.400 131.384,288.400 132.520 M294.920 135.200 C 294.920 136.410,294.995 136.905,295.087 136.300 C 295.178 135.695,295.178 134.705,295.087 134.100 C 294.995 133.495,294.920 133.990,294.920 135.200 M247.300 134.298 C 246.585 134.654,246.000 135.072,246.000 135.227 C 246.000 135.681,248.556 135.941,249.059 135.538 C 249.513 135.174,249.341 133.576,248.853 133.626 C 248.714 133.640,248.015 133.942,247.300 134.298 M285.050 134.719 C 284.710 135.269,285.356 135.873,286.514 136.088 C 287.313 136.236,287.734 136.096,288.003 135.595 C 288.313 135.015,288.166 134.853,287.139 134.648 C 285.533 134.327,285.287 134.335,285.050 134.719 M231.791 173.200 C 231.791 192.230,231.840 200.015,231.900 190.500 C 231.960 180.985,231.960 165.415,231.900 155.900 C 231.840 146.385,231.791 154.170,231.791 173.200 M236.557 144.800 C 236.557 147.770,236.620 148.985,236.697 147.500 C 236.774 146.015,236.774 143.585,236.697 142.100 C 236.620 140.615,236.557 141.830,236.557 144.800 M216.150 144.200 C 216.151 146.620,216.216 147.558,216.296 146.285 C 216.376 145.012,216.375 143.032,216.294 141.885 C 216.214 140.738,216.149 141.780,216.150 144.200 M294.901 143.000 C 294.905 143.880,294.987 144.193,295.083 143.695 C 295.179 143.198,295.175 142.478,295.075 142.095 C 294.975 141.713,294.896 142.120,294.901 143.000 M138.905 143.487 C 139.514 143.579,140.414 143.577,140.905 143.482 C 141.397 143.387,140.900 143.311,139.800 143.314 C 138.700 143.317,138.297 143.395,138.905 143.487 M265.100 143.482 C 265.595 143.578,266.405 143.578,266.900 143.482 C 267.395 143.387,266.990 143.309,266.000 143.309 C 265.010 143.309,264.605 143.387,265.100 143.482 M134.400 144.941 C 132.345 146.165,132.198 146.355,132.166 147.826 L 132.132 149.400 132.290 147.869 C 132.428 146.544,132.646 146.256,133.918 145.725 C 135.419 145.098,137.593 143.587,136.954 143.616 C 136.759 143.624,135.610 144.221,134.400 144.941 M261.554 144.343 C 261.029 144.752,260.039 145.375,259.353 145.726 C 258.189 146.323,258.091 146.545,257.865 149.083 C 257.332 155.083,257.389 236.349,257.927 236.887 C 258.689 237.650,273.214 237.617,274.138 236.851 C 274.747 236.346,274.792 233.118,274.703 196.451 L 274.606 156.600 274.403 196.400 L 274.200 236.200 271.200 236.534 C 267.398 236.958,259.491 236.501,258.536 235.803 C 258.033 235.435,257.831 234.770,257.849 233.541 C 257.863 232.583,257.900 213.966,257.931 192.169 C 257.978 158.263,258.072 152.296,258.580 150.857 C 258.906 149.932,259.134 148.510,259.087 147.698 C 259.008 146.357,259.120 146.181,260.297 145.791 C 261.010 145.555,261.820 145.076,262.097 144.727 C 262.374 144.378,262.870 143.996,263.200 143.878 C 263.703 143.698,263.696 143.658,263.154 143.632 C 262.799 143.614,262.079 143.935,261.554 144.343 M268.600 143.888 C 269.040 143.995,269.670 144.312,270.000 144.593 C 270.330 144.874,271.230 145.418,272.000 145.803 C 272.770 146.187,273.490 146.583,273.600 146.682 C 273.710 146.782,273.903 148.514,274.030 150.531 L 274.260 154.200 274.330 150.509 C 274.399 146.881,274.381 146.807,273.300 146.145 C 272.695 145.775,271.560 145.051,270.778 144.536 C 269.997 144.021,269.007 143.621,268.578 143.646 C 267.829 143.691,267.830 143.700,268.600 143.888 M144.600 144.800 C 144.998 145.240,145.510 145.600,145.737 145.600 C 145.965 145.600,145.764 145.240,145.292 144.800 C 144.820 144.360,144.308 144.000,144.155 144.000 C 144.001 144.000,144.202 144.360,144.600 144.800 M263.300 146.676 C 263.685 146.776,264.315 146.776,264.700 146.676 C 265.085 146.575,264.770 146.493,264.000 146.493 C 263.230 146.493,262.915 146.575,263.300 146.676 M147.521 191.098 C 147.599 219.451,147.502 235.447,147.249 235.898 C 146.681 236.913,133.294 236.720,132.494 235.685 C 132.141 235.228,132.009 233.602,132.058 230.313 C 132.097 227.718,132.010 225.477,131.864 225.331 C 131.351 224.818,131.592 235.361,132.117 236.400 L 132.623 237.400 139.668 237.479 C 146.075 237.551,146.774 237.491,147.384 236.818 C 148.082 236.047,148.337 156.927,147.664 149.800 C 147.519 148.260,147.454 166.844,147.521 191.098 M294.920 150.000 C 294.920 151.210,294.995 151.705,295.087 151.100 C 295.178 150.495,295.178 149.505,295.087 148.900 C 294.995 148.295,294.920 148.790,294.920 150.000 M210.955 154.600 C 210.956 157.460,211.020 158.578,211.097 157.083 C 211.174 155.589,211.174 153.249,211.096 151.883 C 211.018 150.518,210.955 151.740,210.955 154.600 M216.120 151.600 C 216.120 152.810,216.195 153.305,216.287 152.700 C 216.378 152.095,216.378 151.105,216.287 150.500 C 216.195 149.895,216.120 150.390,216.120 151.600 M132.134 155.200 C 132.134 156.850,132.205 157.525,132.291 156.700 C 132.378 155.875,132.378 154.525,132.291 153.700 C 132.205 152.875,132.134 153.550,132.134 155.200 M236.565 160.000 C 236.565 163.850,236.625 165.425,236.698 163.500 C 236.771 161.575,236.771 158.425,236.698 156.500 C 236.625 154.575,236.565 156.150,236.565 160.000 M132.093 159.600 C 132.093 160.370,132.175 160.685,132.276 160.300 C 132.376 159.915,132.376 159.285,132.276 158.900 C 132.175 158.515,132.093 158.830,132.093 159.600 M216.160 166.600 C 216.161 169.900,216.222 171.197,216.298 169.482 C 216.373 167.767,216.372 165.067,216.297 163.482 C 216.221 161.897,216.159 163.300,216.160 166.600 M132.120 165.600 C 132.120 166.810,132.195 167.305,132.287 166.700 C 132.378 166.095,132.378 165.105,132.287 164.500 C 132.195 163.895,132.120 164.390,132.120 165.600 M294.901 167.000 C 294.905 167.880,294.987 168.193,295.083 167.695 C 295.179 167.198,295.175 166.478,295.075 166.095 C 294.975 165.713,294.896 166.120,294.901 167.000 M236.558 173.000 C 236.558 176.080,236.621 177.287,236.697 175.682 C 236.773 174.078,236.773 171.558,236.696 170.082 C 236.619 168.607,236.557 169.920,236.558 173.000 M132.120 174.800 C 132.120 176.010,132.195 176.505,132.287 175.900 C 132.378 175.295,132.378 174.305,132.287 173.700 C 132.195 173.095,132.120 173.590,132.120 174.800 M216.182 190.000 C 216.182 198.690,216.235 202.245,216.300 197.900 C 216.364 193.555,216.364 186.445,216.300 182.100 C 216.235 177.755,216.182 181.310,216.182 190.000 M236.574 192.200 C 236.575 197.920,236.631 200.204,236.699 197.276 C 236.768 194.348,236.767 189.668,236.699 186.876 C 236.630 184.084,236.574 186.480,236.574 192.200 M132.177 193.800 C 132.177 200.180,132.232 202.734,132.299 199.476 C 132.367 196.217,132.366 190.997,132.299 187.876 C 132.231 184.754,132.176 187.420,132.177 193.800 M236.531 207.000 C 236.533 208.540,236.605 209.121,236.692 208.291 C 236.779 207.461,236.777 206.201,236.689 205.491 C 236.600 204.781,236.529 205.460,236.531 207.000 M132.124 208.200 C 132.126 209.520,132.201 210.012,132.290 209.293 C 132.379 208.574,132.377 207.494,132.286 206.893 C 132.195 206.292,132.122 206.880,132.124 208.200 M215.911 210.827 C 215.802 213.482,215.849 216.227,216.015 216.927 C 216.199 217.701,216.334 215.806,216.359 212.100 C 216.408 204.785,216.186 204.154,215.911 210.827 M231.695 221.526 C 231.637 229.945,231.441 235.549,231.190 236.019 C 230.803 236.742,230.399 236.772,223.890 236.551 C 215.337 236.261,215.877 236.729,216.113 229.800 C 216.221 226.602,216.166 225.216,215.968 226.200 C 215.401 229.018,215.539 235.122,216.198 236.396 L 216.796 237.552 223.761 237.547 C 232.998 237.542,232.036 239.385,231.900 221.963 L 231.789 207.800 231.695 221.526 M236.509 212.800 C 236.509 213.790,236.587 214.195,236.682 213.700 C 236.778 213.205,236.778 212.395,236.682 211.900 C 236.587 211.405,236.509 211.810,236.509 212.800 M132.144 217.200 C 132.144 219.290,132.212 220.145,132.294 219.100 C 132.376 218.055,132.376 216.345,132.294 215.300 C 132.212 214.255,132.144 215.110,132.144 217.200 M295.293 214.800 C 295.293 215.570,295.375 215.885,295.476 215.500 C 295.576 215.115,295.576 214.485,295.476 214.100 C 295.375 213.715,295.293 214.030,295.293 214.800 M216.109 221.600 C 216.109 222.590,216.187 222.995,216.282 222.500 C 216.378 222.005,216.378 221.195,216.282 220.700 C 216.187 220.205,216.109 220.610,216.109 221.600 M175.369 248.035 C 174.879 248.575,174.810 252.766,174.897 276.435 L 175.000 304.200 181.547 304.310 C 186.035 304.386,188.268 304.276,188.647 303.961 C 189.104 303.582,189.200 300.074,189.200 283.733 L 189.200 263.964 190.182 262.982 C 190.831 262.332,191.610 262.002,192.482 262.006 C 195.152 262.019,194.989 260.709,195.111 283.145 C 195.204 300.282,195.312 303.595,195.796 303.997 C 196.468 304.554,208.950 304.580,209.939 304.026 C 210.466 303.731,210.548 301.126,210.572 283.926 C 210.604 261.429,210.525 262.000,213.586 262.000 C 215.866 262.000,215.783 261.263,216.000 283.600 L 216.200 304.200 223.548 304.309 C 231.596 304.429,232.034 304.321,231.947 302.251 L 231.895 301.000 231.647 302.400 L 231.400 303.800 224.000 303.800 L 216.600 303.800 216.523 283.203 L 216.447 262.605 215.529 261.862 C 214.375 260.927,211.844 261.179,210.678 262.344 C 209.505 263.517,209.371 266.489,209.600 286.200 C 209.731 297.436,209.661 303.504,209.400 303.699 C 209.180 303.864,206.030 303.954,202.400 303.899 L 195.800 303.800 195.734 283.248 C 195.659 259.810,195.921 261.429,192.200 261.429 C 188.385 261.429,188.648 259.849,188.622 282.972 C 188.607 296.831,188.465 303.295,188.169 303.591 C 187.889 303.871,185.588 303.983,181.569 303.911 L 175.400 303.800 175.297 276.444 C 175.223 256.570,175.318 248.940,175.646 248.544 C 176.019 248.095,180.860 248.000,203.400 248.000 C 233.944 248.000,231.886 247.788,231.414 250.886 C 231.224 252.132,231.267 252.436,231.570 252.000 C 232.145 251.174,232.105 249.097,231.499 248.268 C 230.756 247.252,176.282 247.026,175.369 248.035 M275.838 247.500 C 256.586 247.575,248.519 247.736,248.138 248.052 C 247.409 248.656,247.382 259.773,248.106 261.120 L 248.600 262.039 276.199 262.028 C 301.783 262.018,303.835 261.967,304.299 261.332 C 305.726 259.381,304.682 246.424,303.169 247.297 C 303.076 247.351,290.777 247.442,275.838 247.500 M101.468 248.101 C 100.390 248.889,100.413 303.637,101.492 304.064 C 102.676 304.532,156.346 304.457,157.226 303.986 C 157.973 303.586,158.000 302.968,158.000 286.409 L 158.000 269.245 157.111 268.623 C 155.966 267.821,124.749 267.676,123.019 268.464 L 122.000 268.928 122.000 275.220 C 122.000 283.850,121.083 283.141,132.439 283.285 C 142.708 283.416,142.800 283.442,142.800 286.235 C 142.800 287.543,142.609 288.074,142.026 288.386 C 140.736 289.076,117.014 288.940,116.432 288.239 C 115.734 287.397,116.003 263.435,116.720 262.719 C 117.126 262.313,121.552 262.156,137.052 262.000 C 156.080 261.808,156.888 261.769,157.433 261.024 C 158.375 259.734,158.239 249.140,157.269 248.262 C 156.301 247.387,102.657 247.232,101.468 248.101 M156.762 248.554 C 157.325 249.232,157.166 260.195,156.585 260.773 C 156.354 261.003,148.305 261.216,136.494 261.304 C 121.570 261.416,116.668 261.572,116.294 261.946 C 115.601 262.637,115.355 287.823,116.033 288.640 C 116.741 289.493,142.080 289.467,142.790 288.612 C 143.674 287.547,143.515 284.139,142.536 283.159 C 141.709 282.331,141.274 282.288,132.567 282.158 C 127.560 282.084,123.319 281.879,123.143 281.703 C 122.600 281.160,122.665 269.645,123.215 268.982 C 123.817 268.257,155.094 268.101,156.431 268.816 C 157.495 269.386,157.598 303.362,156.536 303.769 C 155.554 304.146,102.250 304.019,101.649 303.639 C 101.325 303.434,101.228 303.079,101.413 302.779 C 101.750 302.234,101.714 249.580,101.376 249.243 C 101.265 249.132,101.586 248.814,102.087 248.535 C 103.496 247.753,156.112 247.771,156.762 248.554 M303.920 248.480 C 304.493 249.053,304.591 259.880,304.030 260.765 C 303.550 261.524,249.478 261.528,248.563 260.770 C 247.979 260.284,247.708 250.027,248.243 248.633 C 248.562 247.801,303.091 247.651,303.920 248.480 M248.080 268.480 C 247.422 269.138,247.454 280.579,248.118 282.111 L 248.600 283.222 276.200 283.231 L 303.800 283.239 304.294 282.320 C 304.973 281.056,304.995 269.155,304.320 268.480 C 303.626 267.786,248.774 267.786,248.080 268.480 M303.920 268.880 C 304.454 269.414,304.566 280.035,304.052 281.342 C 303.604 282.481,248.789 282.458,248.340 281.319 C 247.832 280.031,247.951 269.409,248.480 268.880 C 249.174 268.186,303.226 268.186,303.920 268.880 M248.080 289.280 C 247.343 290.017,247.410 303.345,248.154 303.962 C 248.740 304.448,302.930 304.632,304.181 304.152 C 304.987 303.843,305.116 290.076,304.320 289.280 C 303.626 288.586,248.774 288.586,248.080 289.280 M303.996 289.992 C 304.259 290.484,304.378 293.257,304.310 297.292 L 304.200 303.800 276.200 303.800 L 248.200 303.800 248.090 297.015 C 248.029 293.283,248.069 289.998,248.177 289.715 C 248.561 288.715,303.458 288.988,303.996 289.992 M231.334 293.200 C 231.334 294.850,231.405 295.525,231.491 294.700 C 231.578 293.875,231.578 292.525,231.491 291.700 C 231.405 290.875,231.334 291.550,231.334 293.200 M231.314 299.000 C 231.317 300.100,231.395 300.503,231.487 299.895 C 231.579 299.286,231.577 298.386,231.482 297.895 C 231.387 297.403,231.311 297.900,231.314 299.000 M111.577 313.938 L 110.666 314.676 110.714 330.830 C 110.773 350.173,109.711 348.000,119.103 348.000 C 128.700 348.000,127.600 350.226,127.600 330.809 L 127.600 314.445 126.711 313.823 C 125.281 312.821,112.839 312.916,111.577 313.938 M132.299 313.649 C 131.157 314.288,131.229 346.973,132.374 347.586 C 132.821 347.825,136.041 348.000,140.000 348.000 C 149.484 348.000,148.400 350.220,148.400 330.795 L 148.400 314.418 147.456 313.800 C 146.357 313.080,133.543 312.953,132.299 313.649 M152.662 313.931 C 151.661 315.037,151.652 346.395,152.652 347.395 C 153.529 348.272,167.864 348.145,168.940 347.251 C 169.533 346.757,169.600 345.073,169.600 330.531 L 169.600 314.359 168.213 313.780 C 165.943 312.831,153.548 312.952,152.662 313.931 M174.965 313.557 C 174.286 313.731,173.521 314.002,173.265 314.160 C 172.431 314.675,172.620 346.553,173.462 347.251 C 174.421 348.046,189.182 348.046,190.139 347.251 C 190.734 346.757,190.800 345.084,190.800 330.565 L 190.800 314.428 189.900 313.924 C 188.859 313.342,176.956 313.049,174.965 313.557 M195.500 313.829 L 194.400 314.426 194.400 330.590 L 194.400 346.755 195.289 347.377 C 196.353 348.123,209.494 348.299,210.826 347.586 C 211.997 346.959,212.037 314.920,210.869 313.862 C 209.845 312.936,197.197 312.908,195.500 313.829 M216.225 313.972 C 215.153 315.157,215.294 347.008,216.374 347.586 C 217.871 348.387,230.970 348.117,231.738 347.269 C 232.331 346.613,232.400 344.860,232.400 330.478 L 232.400 314.418 231.472 313.811 C 230.021 312.860,217.108 312.997,216.225 313.972 M236.672 313.921 C 235.573 315.135,235.654 346.363,236.759 347.363 C 237.762 348.270,251.831 348.173,252.940 347.251 C 253.533 346.757,253.600 345.073,253.600 330.531 L 253.600 314.359 252.300 313.843 C 250.006 312.933,237.510 312.994,236.672 313.921 M259.307 313.586 C 258.377 313.732,257.520 313.947,257.404 314.062 C 256.944 314.523,257.115 346.875,257.581 347.341 C 258.218 347.980,273.232 348.225,274.370 347.616 C 275.578 346.970,275.686 314.964,274.484 313.876 C 273.725 313.189,263.124 312.987,259.307 313.586 M279.532 313.975 L 278.650 314.689 278.709 330.838 C 278.763 345.649,278.825 347.029,279.460 347.494 C 280.439 348.209,294.527 348.215,295.108 347.500 C 295.931 346.487,296.021 314.821,295.203 314.003 C 294.133 312.933,280.848 312.909,279.532 313.975 M126.720 314.480 C 127.341 315.101,127.417 346.618,126.799 347.001 C 126.245 347.343,112.172 347.353,111.619 347.012 C 111.041 346.654,111.125 315.243,111.707 314.500 C 112.251 313.805,126.026 313.786,126.720 314.480 M147.504 330.447 C 147.593 344.235,147.521 346.767,147.029 347.176 C 146.593 347.538,144.697 347.576,139.325 347.328 L 132.200 347.000 132.095 330.826 C 132.013 318.155,132.100 314.582,132.495 314.328 C 132.773 314.149,136.240 314.047,140.200 314.101 L 147.400 314.200 147.504 330.447 M167.887 314.321 C 168.866 314.944,168.781 346.791,167.800 347.031 C 167.360 347.139,163.760 347.176,159.800 347.114 L 152.600 347.000 152.539 331.000 C 152.498 320.562,152.620 314.826,152.887 314.500 C 153.351 313.935,167.022 313.772,167.887 314.321 M188.729 314.246 L 189.958 314.492 189.981 330.618 L 190.004 346.745 189.102 347.061 C 188.124 347.405,175.445 347.322,174.300 346.964 C 173.649 346.761,173.600 345.627,173.600 330.602 C 173.600 315.564,173.648 314.446,174.300 314.276 C 175.380 313.994,187.344 313.969,188.729 314.246 M210.720 314.480 C 211.428 315.188,211.408 346.543,210.700 347.084 C 210.159 347.498,196.283 347.422,195.603 347.002 C 194.983 346.619,195.057 315.103,195.680 314.480 C 196.017 314.143,198.258 314.000,203.200 314.000 C 208.142 314.000,210.383 314.143,210.720 314.480 M231.505 330.375 C 231.562 339.272,231.462 346.698,231.282 346.878 C 230.835 347.325,218.024 347.570,216.900 347.153 L 216.000 346.820 216.000 330.890 C 216.000 318.876,216.120 314.840,216.489 314.471 C 216.846 314.114,218.917 314.012,224.189 314.091 L 231.400 314.200 231.505 330.375 M251.950 314.361 C 252.921 314.975,252.847 346.730,251.875 347.039 C 250.827 347.372,237.794 347.367,237.254 347.034 C 236.755 346.725,236.572 314.761,237.067 314.267 C 237.465 313.869,251.312 313.956,251.950 314.361 M274.212 314.420 C 274.506 314.895,274.554 346.779,274.262 347.072 C 273.982 347.351,259.443 347.331,258.558 347.050 C 257.367 346.672,257.439 314.825,258.632 314.357 C 259.858 313.877,273.912 313.933,274.212 314.420 M295.000 330.600 L 295.000 347.000 288.000 347.203 C 284.150 347.314,280.640 347.261,280.200 347.084 C 279.441 346.780,279.068 316.516,279.798 314.491 C 279.940 314.099,281.697 314.007,287.491 314.091 L 295.000 314.200 295.000 330.600 " stroke="none" fill="#7c84cc" fill-rule="evenodd"></path></g></svg>