<svg width="400" height="400" viewBox="0 0 400 400" fill="none" xmlns="http://www.w3.org/2000/svg">
<path d="M143.431 56.5685C174.673 25.3266 225.327 25.3266 256.569 56.5685L343.431 143.431C374.673 174.673 374.673 225.327 343.431 256.568L256.569 343.431C225.327 374.673 174.673 374.673 143.431 343.431L56.5686 256.568C25.3266 225.326 25.3267 174.673 56.5686 143.431L143.431 56.5685Z" fill="#5EDA12"/>
<path d="M143.431 56.5685C174.673 25.3266 225.327 25.3266 256.569 56.5685L343.431 143.431C374.673 174.673 374.673 225.327 343.431 256.568L256.569 343.431C225.327 374.673 174.673 374.673 143.431 343.431L56.5686 256.568C25.3266 225.326 25.3267 174.673 56.5686 143.431L143.431 56.5685Z" fill="#5EDA12"/>
<path d="M232.567 225.736C264.664 225.736 290.726 199.893 291.078 167.879L231.909 225.733C232.128 225.735 232.347 225.736 232.567 225.736Z" fill="white"/>
<path d="M269.375 146.838C237.277 146.838 211.216 172.682 210.863 204.696L270.032 146.842C269.813 146.84 269.594 146.838 269.375 146.838Z" fill="white"/>
<path d="M291.078 146.837H270.039V167.877H291.078V146.837Z" fill="white"/>
<rect width="21.0391" height="21.0391" transform="matrix(-1 0 0 1 231.911 204.696)" fill="white"/>
<path d="M270.039 146.837L291.078 167.877L231.906 225.734L210.866 204.695L270.039 146.837Z" fill="white"/>
<path d="M217.111 220.277V231.891C217.111 244.223 210.587 255.634 199.959 261.889L197.499 263.337" stroke="white" stroke-width="12.4859"/>
<path d="M173.93 227.932C142.16 227.932 116.365 202.352 116.016 170.665L174.581 227.929C174.364 227.931 174.148 227.932 173.93 227.932Z" fill="white"/>
<path d="M137.468 149.843C169.238 149.843 195.034 175.423 195.383 207.11L136.817 149.846C137.034 149.844 137.251 149.843 137.468 149.843Z" fill="white"/>
<path d="M116.001 149.841H136.825V170.666H116.001V149.841Z" fill="white"/>
<rect x="174.574" y="207.11" width="20.8245" height="20.8245" fill="white"/>
<path d="M136.825 149.842L116 170.666L174.569 227.934L195.393 207.109L136.825 149.842Z" fill="white"/>
<path fill-rule="evenodd" clip-rule="evenodd" d="M174.801 209.687C172.941 211.547 169.927 211.547 168.067 209.687L137.594 179.214C135.735 177.355 135.735 174.34 137.594 172.481C139.454 170.621 142.468 170.621 144.328 172.481L174.801 202.954C176.66 204.813 176.66 207.828 174.801 209.687Z" fill="#5EDA12"/>
<path fill-rule="evenodd" clip-rule="evenodd" d="M232.562 206.687C234.421 208.546 237.436 208.546 239.295 206.687L269.768 176.214C271.628 174.354 271.628 171.34 269.768 169.48C267.909 167.621 264.894 167.621 263.035 169.48L232.562 199.953C230.702 201.813 230.702 204.827 232.562 206.687Z" fill="#5EDA12"/>
<path fill-rule="evenodd" clip-rule="evenodd" d="M183 280.41C188.287 280.41 192.573 276.124 192.573 270.837C192.573 265.551 188.287 261.265 183 261.265C177.713 261.265 173.427 265.551 173.427 270.837C173.427 276.124 177.713 280.41 183 280.41ZM183 291.837C194.598 291.837 204 282.435 204 270.837C204 259.239 194.598 249.837 183 249.837C171.402 249.837 162 259.239 162 270.837C162 282.435 171.402 291.837 183 291.837Z" fill="white"/>
<path d="M210 238.837C204.5 250.837 195.4 249.837 183 249.837L207 262.837L210 238.837Z" fill="white"/>
<path d="M215 256.837C212.167 260.337 206 267.837 203 277.337L197 257.837L215 256.837Z" fill="white"/>
</svg>
