<svg id="svg" version="1.1" xmlns="http://www.w3.org/2000/svg" xmlns:xlink="http://www.w3.org/1999/xlink" width="400" height="284.44444444444446" viewBox="0, 0, 400,284.44444444444446"><g id="svgg"><path id="path0" d="M75.139 69.854 C 69.339 71.408,67.666 79.580,64.585 121.389 C 62.496 149.744,61.010 162.467,59.008 169.158 C 58.142 172.052,57.184 169.195,54.444 155.556 C 51.016 138.489,48.798 134.604,42.124 133.981 C 34.809 133.298,30.352 137.590,26.549 148.979 C 24.147 156.173,22.191 157.001,17.574 152.778 C 14.090 149.590,10.798 148.457,4.143 148.157 C 0.547 147.995,-0.000 148.026,-0.000 148.391 C -0.000 148.742,0.736 148.836,4.514 148.965 C 10.854 149.181,13.485 150.092,17.025 153.300 C 22.309 158.090,24.535 157.121,27.397 148.785 C 30.757 139.002,34.321 135.127,40.272 134.788 C 47.816 134.358,50.064 137.860,53.601 155.556 C 55.615 165.629,56.512 168.984,57.784 171.213 L 58.557 172.565 59.127 171.275 C 61.231 166.519,63.249 151.642,64.896 128.750 C 65.159 125.083,65.489 122.007,65.628 121.913 C 65.767 121.820,65.861 121.661,65.836 121.559 C 65.812 121.458,65.847 121.222,65.914 121.035 C 65.981 120.848,66.023 121.090,66.008 121.573 C 65.993 122.056,65.885 122.393,65.768 122.321 C 65.651 122.248,65.556 122.454,65.556 122.778 C 65.556 123.101,65.674 123.293,65.819 123.203 C 65.970 123.110,66.017 123.309,65.928 123.673 C 65.602 125.014,65.607 129.723,65.934 129.527 C 66.167 129.388,66.169 129.443,65.943 129.738 C 65.535 130.271,65.420 133.450,65.818 133.204 C 65.979 133.104,66.111 133.155,66.111 133.317 C 66.111 133.479,65.998 133.611,65.859 133.611 C 65.721 133.611,65.596 134.744,65.581 136.128 C 65.560 138.076,65.633 138.598,65.902 138.436 C 66.121 138.304,66.102 138.409,65.851 138.718 C 65.505 139.145,65.505 139.242,65.851 139.461 C 66.128 139.637,66.144 139.715,65.903 139.718 C 65.703 139.720,65.556 140.076,65.556 140.556 C 65.556 141.015,65.704 141.389,65.886 141.389 C 66.068 141.389,65.977 141.565,65.682 141.780 C 65.206 142.128,65.185 142.274,65.490 143.119 C 65.917 144.298,65.921 144.531,65.512 144.279 C 65.283 144.137,65.251 144.273,65.400 144.748 C 65.614 145.432,65.617 145.545,65.451 147.222 C 65.398 147.757,65.457 148.471,65.583 148.810 C 65.717 149.168,65.701 149.494,65.545 149.590 C 65.182 149.814,65.205 151.111,65.572 151.111 C 65.734 151.111,65.783 151.245,65.682 151.409 C 65.342 151.960,65.219 156.875,65.541 157.074 C 65.707 157.177,65.754 157.403,65.646 157.578 C 65.299 158.140,65.194 161.474,65.530 161.266 C 65.738 161.137,65.758 161.279,65.596 161.720 C 65.246 162.671,65.256 170.334,65.608 170.757 C 65.769 170.952,65.792 171.111,65.657 171.111 C 65.523 171.111,65.398 171.860,65.380 172.776 C 65.277 177.880,58.051 179.986,53.628 176.200 C 50.149 173.222,48.590 168.918,45.998 155.139 C 42.568 136.900,40.134 135.562,34.973 149.075 C 31.460 158.274,29.422 160.656,24.410 161.420 C 20.292 162.048,16.153 160.793,12.673 157.860 C 8.835 154.625,8.332 154.444,3.181 154.444 C 0.539 154.444,0.000 154.515,0.000 154.861 C 0.000 155.210,0.579 155.278,3.542 155.279 C 7.995 155.281,8.619 155.462,10.948 157.428 C 15.603 161.355,17.434 162.083,22.645 162.083 C 29.311 162.083,31.889 159.643,35.430 149.981 C 40.219 136.916,42.096 138.096,45.404 156.250 C 48.529 173.394,51.511 178.468,58.678 178.833 C 67.633 179.289,69.736 171.650,73.189 126.111 C 75.078 101.194,76.601 85.844,77.252 85.153 C 77.406 84.989,77.500 85.024,77.500 85.244 C 77.500 85.439,77.808 87.871,78.184 90.647 C 79.532 100.597,80.810 116.727,82.500 145.139 C 86.262 208.356,87.854 217.036,95.694 217.060 C 102.963 217.082,104.842 209.594,108.059 167.778 C 110.199 139.966,112.964 113.210,113.881 111.440 C 114.360 110.515,115.864 121.911,117.776 140.972 C 121.695 180.027,123.948 186.702,132.990 186.050 C 140.119 185.537,142.485 180.297,145.410 158.548 C 147.359 144.057,148.867 137.571,150.529 136.544 C 151.559 135.907,153.156 141.062,154.440 149.167 C 156.760 163.815,160.017 168.859,167.487 169.371 C 176.122 169.962,180.355 165.403,183.033 152.625 C 185.543 140.649,187.845 140.040,191.885 150.280 C 194.753 157.549,196.878 160.270,200.705 161.574 L 201.944 161.997 201.944 170.304 L 201.944 178.611 206.523 178.611 L 211.102 178.611 211.176 170.903 L 211.250 163.194 217.083 163.194 L 222.917 163.194 222.991 170.903 L 223.064 178.611 227.784 178.611 L 232.504 178.611 232.432 158.264 L 232.361 137.917 227.708 137.841 L 223.056 137.764 223.056 145.827 L 223.056 153.889 217.083 153.889 L 211.111 153.889 211.111 145.833 L 211.111 137.778 206.528 137.778 L 201.944 137.778 201.936 144.514 C 201.927 151.993,201.979 151.900,200.255 147.474 C 196.942 138.973,193.325 136.132,186.209 136.440 C 179.261 136.741,176.745 139.939,174.067 151.881 C 172.678 158.073,171.789 160.424,170.366 161.674 C 167.286 164.378,165.581 161.100,163.351 148.194 C 160.845 133.685,158.291 129.675,151.279 129.237 C 145.023 128.847,141.536 132.306,139.311 141.111 C 138.447 144.533,138.050 146.893,136.534 157.639 C 134.811 169.850,133.247 177.500,132.472 177.500 C 131.111 177.500,128.531 160.628,126.527 138.611 C 123.411 104.381,121.484 98.224,113.889 98.224 C 105.709 98.224,103.343 109.174,99.307 165.694 C 98.143 182.004,96.439 198.867,95.846 199.958 C 95.169 201.201,93.187 176.949,90.412 133.472 C 86.719 75.603,84.722 67.286,75.139 69.854 M254.444 102.665 L 254.444 123.108 262.014 122.988 C 268.266 122.888,269.849 122.781,271.111 122.374 C 281.839 118.916,285.359 107.974,278.209 100.315 L 276.489 98.472 277.043 97.083 C 279.022 92.122,276.498 86.305,271.250 83.731 C 268.563 82.413,267.189 82.222,260.379 82.222 L 254.444 82.222 254.444 102.665 M285.000 102.774 L 285.000 123.056 295.486 123.055 L 305.972 123.053 305.974 120.997 C 305.975 119.865,305.889 118.993,305.784 119.058 C 305.539 119.209,305.662 118.002,305.937 117.558 C 306.051 117.373,306.015 117.222,305.857 117.222 C 305.663 117.222,305.658 116.990,305.839 116.512 C 306.018 116.042,306.016 115.860,305.832 115.973 C 305.680 116.067,305.556 116.019,305.556 115.866 C 305.556 115.713,305.679 115.512,305.829 115.419 C 305.980 115.326,306.061 114.975,306.010 114.639 C 305.918 114.034,305.855 114.027,300.042 113.953 L 294.167 113.878 294.167 110.550 L 294.167 107.222 300.000 107.222 C 305.362 107.222,305.835 107.183,305.856 106.736 C 305.869 106.469,305.916 105.938,305.960 105.556 C 306.004 105.174,305.927 104.642,305.788 104.375 C 305.650 104.108,305.639 103.889,305.764 103.889 C 306.067 103.889,306.019 100.248,305.711 99.748 C 305.545 99.480,305.571 99.421,305.796 99.560 C 306.024 99.701,306.103 99.504,306.058 98.909 L 305.993 98.056 300.080 98.056 L 294.167 98.056 294.167 94.861 L 294.167 91.667 300.115 91.667 L 306.064 91.667 306.018 87.153 L 305.972 82.639 295.486 82.566 L 285.000 82.493 285.000 102.774 M266.745 91.767 C 269.578 92.966,268.529 95.278,265.153 95.278 L 263.889 95.278 263.889 93.333 L 263.889 91.389 264.870 91.389 C 265.410 91.389,266.253 91.559,266.745 91.767 M268.925 105.044 C 275.329 106.962,272.959 113.611,265.871 113.611 L 263.889 113.611 263.889 108.987 L 263.889 104.364 265.810 104.525 C 266.867 104.614,268.269 104.847,268.925 105.044 M242.431 137.984 L 236.667 138.067 236.667 158.339 L 236.667 178.611 249.729 178.611 L 262.791 178.611 262.715 173.958 L 262.639 169.306 254.236 169.232 L 245.833 169.159 245.833 165.968 L 245.833 162.778 252.639 162.778 L 259.444 162.778 259.444 158.056 L 259.444 153.333 252.639 153.333 L 245.833 153.333 245.833 150.278 L 245.833 147.222 254.312 147.222 L 262.791 147.222 262.715 142.569 L 262.639 137.917 255.417 137.908 C 251.444 137.904,245.601 137.938,242.431 137.984 M271.857 158.170 C 268.086 169.240,265.000 178.368,265.000 178.454 C 265.000 178.540,267.177 178.611,269.838 178.611 L 274.676 178.611 275.486 176.181 L 276.296 173.750 282.816 173.676 L 289.337 173.601 290.137 176.106 L 290.938 178.611 295.765 178.611 L 300.593 178.611 300.397 177.986 C 299.854 176.247,292.476 153.273,290.206 146.250 L 287.603 138.194 283.158 138.118 L 278.714 138.042 271.857 158.170 M303.611 158.350 L 303.611 178.645 304.653 178.558 L 305.694 178.472 305.730 167.500 C 305.750 161.465,305.803 155.747,305.848 154.794 C 305.893 153.840,305.857 152.987,305.768 152.898 C 305.679 152.809,305.720 152.340,305.859 151.856 C 306.176 150.751,306.176 150.760,305.786 151.001 C 305.556 151.144,305.527 151.047,305.686 150.671 C 305.809 150.378,305.906 149.764,305.901 149.306 C 305.879 147.153,305.833 146.912,305.486 147.120 C 305.218 147.282,305.212 147.238,305.460 146.928 C 305.858 146.431,306.160 144.659,305.809 144.876 C 305.670 144.962,305.556 144.900,305.556 144.739 C 305.556 144.577,305.649 144.445,305.764 144.445 C 305.990 144.445,305.946 139.028,305.715 138.425 C 305.634 138.214,305.152 138.056,304.592 138.056 L 303.611 138.056 303.611 158.350 M284.728 159.306 C 285.534 161.750,286.250 163.906,286.321 164.097 C 286.418 164.363,285.659 164.444,283.085 164.444 C 280.581 164.444,279.722 164.356,279.720 164.097 C 279.716 163.434,282.918 154.476,283.090 154.668 C 283.186 154.774,283.923 156.861,284.728 159.306 " stroke="none" fill="#fc4304" fill-rule="evenodd"></path><path id="path2" d="M301.111 82.490 L 305.972 82.639 306.026 86.806 C 306.055 89.097,306.086 91.128,306.095 91.319 C 306.107 91.569,306.777 91.667,308.472 91.667 L 310.833 91.667 310.833 86.944 L 310.833 82.222 303.542 82.282 C 296.412 82.340,296.358 82.344,301.111 82.490 M284.854 102.778 C 284.854 114.007,284.888 118.601,284.930 112.986 C 284.972 107.372,284.972 98.184,284.930 92.569 C 284.888 86.955,284.854 91.549,284.854 102.778 M300.000 98.047 L 305.972 98.194 306.066 98.990 C 306.133 99.567,306.065 99.726,305.814 99.572 C 305.570 99.421,305.540 99.473,305.711 99.748 C 306.019 100.248,306.067 103.889,305.764 103.889 C 305.639 103.889,305.651 104.108,305.792 104.375 C 305.933 104.642,305.994 105.392,305.927 106.042 L 305.806 107.222 306.792 107.222 L 307.778 107.222 307.778 102.500 L 307.778 97.778 300.903 97.839 L 294.028 97.900 300.000 98.047 M264.514 104.643 C 264.934 104.707,265.622 104.707,266.042 104.643 C 266.462 104.580,266.118 104.528,265.278 104.528 C 264.438 104.528,264.094 104.580,264.514 104.643 M299.973 113.881 C 305.832 114.026,305.919 114.037,306.010 114.639 C 306.062 114.975,305.980 115.326,305.829 115.419 C 305.679 115.512,305.556 115.713,305.556 115.866 C 305.556 116.019,305.680 116.067,305.832 115.973 C 306.016 115.860,306.018 116.042,305.839 116.512 C 305.658 116.990,305.663 117.222,305.857 117.222 C 306.015 117.222,306.051 117.373,305.937 117.558 C 305.655 118.013,305.542 119.208,305.795 119.051 C 305.907 118.982,305.992 119.824,305.985 120.921 L 305.972 122.917 308.403 122.997 L 310.833 123.077 310.833 118.344 L 310.833 113.611 302.431 113.672 L 294.028 113.733 299.973 113.881 M65.833 121.111 C 65.833 121.264,65.844 121.469,65.857 121.566 C 65.870 121.664,65.767 121.820,65.628 121.913 C 65.489 122.007,65.159 125.083,64.896 128.750 C 63.249 151.642,61.231 166.519,59.127 171.275 L 58.557 172.565 57.784 171.213 C 56.512 168.984,55.615 165.629,53.601 155.556 C 50.064 137.860,47.816 134.358,40.272 134.788 C 34.321 135.127,30.757 139.002,27.397 148.785 C 24.535 157.121,22.309 158.090,17.025 153.300 C 13.485 150.092,10.854 149.181,4.514 148.965 L -0.000 148.811 -0.000 151.628 L 0.000 154.444 3.181 154.444 C 8.332 154.444,8.835 154.625,12.673 157.860 C 16.153 160.793,20.292 162.048,24.410 161.420 C 29.422 160.656,31.460 158.274,34.973 149.075 C 40.134 135.562,42.568 136.900,45.998 155.139 C 48.590 168.918,50.149 173.222,53.628 176.200 C 58.051 179.986,65.277 177.880,65.380 172.776 C 65.398 171.860,65.523 171.111,65.657 171.111 C 65.792 171.111,65.769 170.952,65.608 170.757 C 65.256 170.334,65.246 162.671,65.596 161.720 C 65.758 161.279,65.738 161.137,65.530 161.266 C 65.194 161.474,65.299 158.140,65.646 157.578 C 65.754 157.403,65.707 157.177,65.541 157.074 C 65.219 156.875,65.342 151.960,65.682 151.409 C 65.783 151.245,65.734 151.111,65.572 151.111 C 65.196 151.111,65.186 149.812,65.560 149.581 C 65.715 149.485,65.775 149.297,65.693 149.165 C 65.399 148.689,65.231 146.505,65.521 146.931 C 65.831 147.385,65.744 145.916,65.392 144.748 C 65.249 144.274,65.284 144.138,65.512 144.279 C 65.921 144.531,65.917 144.298,65.490 143.119 C 65.185 142.274,65.206 142.128,65.682 141.780 C 65.977 141.565,66.068 141.389,65.886 141.389 C 65.704 141.389,65.556 141.015,65.556 140.556 C 65.556 140.076,65.703 139.720,65.903 139.718 C 66.144 139.715,66.128 139.637,65.851 139.461 C 65.505 139.242,65.505 139.145,65.851 138.718 C 66.102 138.409,66.121 138.304,65.902 138.436 C 65.633 138.598,65.560 138.076,65.581 136.128 C 65.596 134.744,65.721 133.611,65.859 133.611 C 65.998 133.611,66.111 133.479,66.111 133.317 C 66.111 133.155,65.979 133.104,65.818 133.204 C 65.420 133.450,65.535 130.271,65.943 129.738 C 66.169 129.443,66.167 129.388,65.934 129.527 C 65.607 129.723,65.602 125.014,65.928 123.673 C 66.017 123.309,65.970 123.110,65.819 123.203 C 65.674 123.293,65.556 123.101,65.556 122.778 C 65.556 122.454,65.651 122.248,65.768 122.321 C 65.885 122.393,65.995 122.088,66.013 121.643 C 66.031 121.197,65.998 120.833,65.940 120.833 C 65.881 120.833,65.833 120.958,65.833 121.111 M280.278 137.965 C 283.998 138.167,287.716 138.177,287.597 137.986 C 287.526 137.872,285.506 137.801,283.109 137.830 C 280.711 137.859,279.438 137.920,280.278 137.965 M336.389 158.225 L 336.389 178.673 342.292 178.541 C 349.016 178.391,351.232 177.967,354.423 176.220 C 369.060 168.209,368.736 147.741,353.850 139.997 C 350.291 138.145,348.313 137.778,341.900 137.778 L 336.389 137.778 336.389 158.225 M305.715 138.425 C 305.946 139.028,305.990 144.445,305.764 144.445 C 305.649 144.445,305.556 144.577,305.556 144.739 C 305.556 144.900,305.670 144.962,305.809 144.876 C 306.160 144.659,305.858 146.431,305.460 146.928 C 305.212 147.238,305.218 147.282,305.486 147.120 C 305.833 146.912,305.879 147.153,305.901 149.306 C 305.906 149.764,305.809 150.378,305.686 150.671 C 305.527 151.047,305.556 151.144,305.786 151.001 C 306.176 150.760,306.176 150.751,305.859 151.856 C 305.720 152.340,305.679 152.809,305.768 152.898 C 305.857 152.987,305.894 153.840,305.849 154.794 C 305.805 155.747,305.752 161.496,305.732 167.569 L 305.694 178.611 309.236 178.611 L 312.778 178.611 312.778 173.507 L 312.778 168.403 313.646 168.229 C 315.872 167.784,315.708 167.634,319.185 173.267 L 322.398 178.472 327.866 178.548 C 330.873 178.589,333.333 178.573,333.333 178.512 C 333.333 178.451,331.336 175.175,328.895 171.233 L 324.456 164.066 325.946 162.504 C 333.706 154.368,328.800 141.284,316.940 138.488 C 314.513 137.916,305.500 137.865,305.715 138.425 M349.374 148.097 C 359.133 152.741,357.289 167.398,346.736 169.053 L 345.556 169.238 345.556 158.276 C 345.556 152.247,345.633 147.238,345.727 147.143 C 346.030 146.840,347.590 147.248,349.374 148.097 M316.757 148.283 C 319.346 149.428,320.864 151.982,320.273 154.195 C 319.671 156.442,316.194 158.889,313.601 158.889 L 312.778 158.889 312.778 153.241 C 312.778 150.134,312.844 147.526,312.925 147.445 C 313.160 147.211,315.480 147.718,316.757 148.283 " stroke="none" fill="#fc8f0a" fill-rule="evenodd"></path><path id="path3" d="M287.569 82.430 C 289.212 82.479,291.899 82.479,293.542 82.430 C 295.184 82.380,293.840 82.340,290.556 82.340 C 287.271 82.340,285.927 82.380,287.569 82.430 M264.378 91.585 C 264.724 91.652,265.224 91.649,265.489 91.580 C 265.755 91.510,265.472 91.456,264.861 91.459 C 264.250 91.462,264.033 91.519,264.378 91.585 M338.694 137.707 C 340.039 137.758,342.164 137.758,343.416 137.706 C 344.669 137.655,343.569 137.613,340.972 137.614 C 338.375 137.614,337.350 137.656,338.694 137.707 M211.234 145.833 C 211.234 150.340,211.272 152.184,211.319 149.931 C 211.366 147.677,211.366 143.990,211.319 141.736 C 211.272 139.483,211.234 141.326,211.234 145.833 M236.517 138.125 C 236.444 138.316,236.417 147.535,236.458 158.611 L 236.531 178.750 236.599 158.408 L 236.667 138.067 242.431 137.986 L 248.194 137.905 242.422 137.841 C 238.012 137.793,236.618 137.860,236.517 138.125 M312.902 147.577 C 312.827 147.773,312.800 150.429,312.842 153.480 L 312.918 159.028 313.056 153.125 C 313.192 147.341,313.178 146.857,312.902 147.577 M345.682 158.194 C 345.682 164.306,345.719 166.766,345.764 163.662 C 345.808 160.558,345.808 155.558,345.763 152.551 C 345.719 149.544,345.682 152.083,345.682 158.194 M22.014 162.421 C 22.434 162.485,23.122 162.485,23.542 162.421 C 23.962 162.358,23.618 162.305,22.778 162.305 C 21.938 162.305,21.594 162.358,22.014 162.421 M211.237 163.407 C 211.162 163.600,211.137 167.131,211.181 171.254 L 211.259 178.750 211.324 171.047 L 211.389 163.345 217.153 163.264 L 222.917 163.183 217.144 163.119 C 212.699 163.070,211.340 163.136,211.237 163.407 M281.330 164.373 C 282.291 164.427,283.791 164.427,284.664 164.372 C 285.536 164.317,284.750 164.272,282.917 164.273 C 281.083 164.273,280.369 164.318,281.330 164.373 M177.344 166.181 L 176.528 167.083 177.431 166.267 C 177.927 165.819,178.333 165.413,178.333 165.365 C 178.333 165.150,178.104 165.339,177.344 166.181 M312.894 173.472 C 312.894 176.375,312.935 177.525,312.985 176.027 C 313.035 174.530,313.035 172.155,312.985 170.749 C 312.934 169.344,312.893 170.569,312.894 173.472 " stroke="none" fill="#fc9287" fill-rule="evenodd"></path><path id="path4" d="M257.307 82.152 C 258.957 82.201,261.582 82.201,263.140 82.151 C 264.698 82.102,263.347 82.062,260.139 82.062 C 256.931 82.062,255.656 82.103,257.307 82.152 M310.948 86.944 C 310.948 89.618,310.989 90.712,311.040 89.375 C 311.091 88.038,311.091 85.851,311.040 84.514 C 310.989 83.177,310.948 84.271,310.948 86.944 M282.020 109.167 C 282.020 109.854,282.074 110.135,282.140 109.792 C 282.207 109.448,282.207 108.885,282.140 108.542 C 282.074 108.198,282.020 108.479,282.020 109.167 M310.948 118.333 C 310.948 121.007,310.989 122.101,311.040 120.764 C 311.091 119.427,311.091 117.240,311.040 115.903 C 310.989 114.566,310.948 115.660,310.948 118.333 M40.486 133.807 C 40.830 133.873,41.392 133.873,41.736 133.807 C 42.080 133.741,41.799 133.687,41.111 133.687 C 40.424 133.687,40.142 133.741,40.486 133.807 M32.344 137.292 L 31.528 138.194 32.431 137.379 C 32.927 136.930,33.333 136.524,33.333 136.476 C 33.333 136.261,33.104 136.450,32.344 137.292 M201.786 144.306 C 201.787 147.972,201.826 149.434,201.874 147.554 C 201.922 145.673,201.922 142.673,201.874 140.887 C 201.826 139.100,201.786 140.639,201.786 144.306 M303.461 138.125 C 303.388 138.316,303.362 147.535,303.402 158.611 L 303.476 178.750 303.544 158.409 L 303.611 138.068 308.958 137.986 L 314.306 137.904 308.950 137.841 C 304.873 137.793,303.562 137.861,303.461 138.125 M245.938 150.278 C 245.938 152.035,245.983 152.753,246.039 151.875 C 246.094 150.997,246.094 149.559,246.039 148.681 C 245.983 147.802,245.938 148.521,245.938 150.278 M259.559 158.056 C 259.559 160.729,259.600 161.823,259.651 160.486 C 259.702 159.149,259.702 156.962,259.651 155.625 C 259.600 154.288,259.559 155.382,259.559 158.056 M214.251 153.819 C 215.902 153.868,218.527 153.868,220.085 153.818 C 221.642 153.769,220.292 153.728,217.083 153.729 C 213.875 153.729,212.601 153.769,214.251 153.819 M201.790 170.417 C 201.790 175.000,201.828 176.914,201.874 174.670 C 201.921 172.426,201.921 168.676,201.875 166.337 C 201.828 163.997,201.790 165.833,201.790 170.417 M245.939 165.972 C 245.940 167.806,245.985 168.519,246.039 167.559 C 246.094 166.598,246.093 165.098,246.038 164.225 C 245.983 163.353,245.939 164.139,245.939 165.972 M167.847 169.643 C 168.267 169.707,168.955 169.707,169.375 169.643 C 169.795 169.580,169.451 169.528,168.611 169.528 C 167.771 169.528,167.427 169.580,167.847 169.643 M278.472 173.804 C 283.952 174.002,289.381 174.010,289.263 173.819 C 289.192 173.705,286.235 173.637,282.692 173.668 C 279.149 173.699,277.250 173.760,278.472 173.804 " stroke="none" fill="#fcc2a3" fill-rule="evenodd"></path></g></svg>